<svg width="149" height="184" viewBox="0 0 149 184" fill="none" xmlns="http://www.w3.org/2000/svg">
<path d="M112 100C112 97.2386 109.761 95 107 95H41C38.2386 95 36 97.2386 36 100V100C36 102.761 38.2386 105 41 105H107C109.761 105 112 102.761 112 100V100Z" fill="#D5DAE5"/>
<path d="M112 120.5C112 118.015 109.985 116 107.5 116H40.5C38.0147 116 36 118.015 36 120.5V120.5C36 122.985 38.0147 125 40.5 125H107.5C109.985 125 112 122.985 112 120.5V120.5Z" fill="#D5DAE5"/>
<path d="M94 141.5C94 139.015 91.9853 137 89.5 137H58.5C56.0147 137 54 139.015 54 141.5V141.5C54 143.985 56.0147 146 58.5 146H89.5C91.9853 146 94 143.985 94 141.5V141.5Z" fill="#D5DAE5"/>
</svg>
