<svg width="54" height="69" viewBox="0 0 54 69" fill="none" xmlns="http://www.w3.org/2000/svg">
<path d="M0.836792 37.2381C0.836792 44.37 6.40445 50.1647 13.257 50.1647H31.837C32.9076 50.1647 33.9785 50.6105 34.6208 51.2791L50.0391 67.3255C50.4674 67.9941 51.324 68.2171 52.1806 67.7713C52.823 67.5485 53.4655 66.6569 53.4655 65.9883V13.8967C53.4655 6.76482 47.8976 0.970215 41.0451 0.970215H13.257C6.40445 0.970215 0.836792 6.76482 0.836792 13.8967V37.2381Z" fill="#CED6E2"/>
<path d="M27.1962 11.2119C19.527 11.2119 13.3664 17.6832 13.3664 25.5923C13.3664 33.5016 19.5898 39.9729 27.1962 39.9729C34.8026 39.9729 41.026 33.5671 41.026 25.5923C41.026 17.6832 34.8655 11.2773 27.1962 11.2119ZM32.4766 18.4675C33.7338 18.4675 34.7398 19.5134 34.7398 20.8207C34.7398 22.128 33.7338 23.174 32.4766 23.174C31.2194 23.174 30.2136 22.128 30.2136 20.8207C30.2136 19.5134 31.2194 18.4675 32.4766 18.4675ZM21.9785 18.4022C23.236 18.4022 24.2417 19.448 24.2417 20.7554C24.2417 22.0627 23.236 23.1085 21.9785 23.1085C20.7213 23.1085 19.7155 22.0627 19.7155 20.7554C19.7155 19.5134 20.7213 18.4022 21.9785 18.4022ZM35.1798 28.9262C33.4826 33.5016 28.5792 35.7895 24.1787 34.0901C21.9158 33.1749 20.0928 31.2793 19.2126 28.9262C19.0241 28.3379 19.2755 27.7494 19.8413 27.5534C19.967 27.4881 20.0928 27.4881 20.2185 27.4881H34.174C34.7398 27.4881 35.2426 28.0109 35.2426 28.5992C35.2426 28.6647 35.2426 28.7954 35.1798 28.9262Z" fill="white"/>
</svg>
