<svg width="131" height="81" viewBox="0 0 131 81" fill="none" xmlns="http://www.w3.org/2000/svg">
<path d="M130.219 52.4046C130.219 58.8679 125.294 63.9938 119.085 63.9938H20.1504C19.2938 63.9938 18.2232 64.4396 17.5806 65.1082L3.66148 79.5947C3.23319 80.0405 2.37659 80.2633 1.73425 80.0405C1.0917 79.8177 0.663391 79.1491 0.663391 78.4803V11.6195C0.663391 5.15627 5.58872 0.0302734 11.7989 0.0302734H118.87C125.081 0.0302734 130.006 5.15627 130.006 11.6195V52.4046H130.219Z" fill="#CED6E2"/>
<path opacity="0.7" d="M108.164 26.1065H23.1485C22.2919 26.1065 21.6494 25.4377 21.6494 24.5463V19.1974C21.6494 18.306 22.2919 17.6372 23.1485 17.6372H108.164C109.019 17.6372 109.662 18.306 109.662 19.1974V24.5463C109.662 25.4377 109.019 26.1065 108.164 26.1065Z" fill="url(#paint0_linear_312_3441)"/>
<path opacity="0.7" d="M75.6128 47.9475H23.1485C22.2919 47.9475 21.6494 47.279 21.6494 46.3876V41.0387C21.6494 40.1471 22.2919 39.4785 23.1485 39.4785H75.6128C76.4702 39.4785 77.1128 40.1471 77.1128 41.0387V46.3876C77.1128 47.0562 76.2553 47.9475 75.6128 47.9475Z" fill="url(#paint1_linear_312_3441)"/>
<defs>
<linearGradient id="paint0_linear_312_3441" x1="112.015" y1="21.8476" x2="22.27" y2="21.8476" gradientUnits="userSpaceOnUse">
<stop offset="0.00651336" stop-color="#A6AEBE" stop-opacity="0"/>
<stop offset="1" stop-color="#A6AAB5"/>
</linearGradient>
<linearGradient id="paint1_linear_312_3441" x1="78.5957" y1="43.6889" x2="22.0404" y2="43.6889" gradientUnits="userSpaceOnUse">
<stop offset="0.00651336" stop-color="#A6AEBE" stop-opacity="0"/>
<stop offset="1" stop-color="#A6AAB5"/>
</linearGradient>
</defs>
</svg>
