<svg width="145" height="90" viewBox="0 0 145 90" fill="none" xmlns="http://www.w3.org/2000/svg">
<path d="M0.347443 58.9934C0.347443 66.1252 5.91514 71.9199 12.7677 71.9199H122.837C123.908 71.9199 124.979 72.3655 125.621 73.0341L141.039 89.0808C141.467 89.7494 142.324 89.9724 143.181 89.5266C143.823 89.3038 144.466 88.4122 144.466 87.7436V13.5279C144.466 6.39603 138.898 0.601562 132.045 0.601562H12.7677C5.91514 0.601562 0.347443 6.39603 0.347443 13.5279V58.9934Z" fill="#CED6E2"/>
<path opacity="0.7" d="M117.484 29.5743H22.8325C21.9759 29.5743 21.1194 28.6829 21.1194 27.7913V21.9966C21.1194 21.1052 21.9759 20.2139 22.8325 20.2139H117.484C118.34 20.2139 119.197 21.1052 119.197 21.9966V27.7913C119.197 28.9057 118.554 29.5743 117.484 29.5743Z" fill="url(#paint0_linear_312_3440)"/>
<path opacity="0.7" d="M81.0794 53.8674H22.8325C21.9759 53.8674 21.1194 52.9759 21.1194 52.0845V46.2898C21.1194 45.3982 21.9759 44.5068 22.8325 44.5068H81.0794C81.936 44.5068 82.7925 45.3982 82.7925 46.2898V52.0845C82.7925 53.1986 82.15 53.8674 81.0794 53.8674Z" fill="url(#paint1_linear_312_3440)"/>
<defs>
<linearGradient id="paint0_linear_312_3440" x1="121.819" y1="24.8672" x2="21.8108" y2="24.8672" gradientUnits="userSpaceOnUse">
<stop offset="0.00651336" stop-color="#A6AEBE" stop-opacity="0"/>
<stop offset="1" stop-color="#A6AAB5"/>
</linearGradient>
<linearGradient id="paint1_linear_312_3440" x1="84.4411" y1="49.1601" x2="21.5542" y2="49.1601" gradientUnits="userSpaceOnUse">
<stop offset="0.00651336" stop-color="#A6AEBE" stop-opacity="0"/>
<stop offset="1" stop-color="#A6AAB5"/>
</linearGradient>
</defs>
</svg>
