<svg width="75" height="77" viewBox="0 0 75 77" fill="none" xmlns="http://www.w3.org/2000/svg">
<path d="M73.4021 38.1397C73.4021 48.1686 69.5468 57.0835 63.551 63.7695C63.1234 64.4381 62.4808 64.8839 61.8383 65.3297C55.4127 71.57 46.8468 75.3589 37.4253 75.3589C29.9302 75.3589 22.8636 72.9071 17.0817 68.6726C15.3685 67.5585 13.8696 65.9983 12.3706 64.6611C5.73212 57.975 1.66339 48.6144 1.66339 38.1397C1.66339 17.6354 17.7242 0.92041 37.4253 0.92041C57.3404 0.92041 73.4021 17.6354 73.4021 38.1397Z" fill="#E9F0F8"/>
<path d="M73.4021 38.1395C73.4021 49.0601 68.9042 58.6435 61.8383 65.5526C55.4127 71.7928 46.8468 75.5816 37.4253 75.5816C29.9302 75.5816 22.8636 73.13 17.0817 68.8955C7.65936 62.2094 1.66339 51.0661 1.66339 38.3623C1.66339 17.8583 17.7242 1.14307 37.4253 1.14307C57.1255 1.14307 73.4021 17.6355 73.4021 38.1395Z" fill="#DCE2F0"/>
<path d="M63.5511 63.7698C63.1234 64.4384 62.4808 64.8842 61.8383 65.3298C55.4128 71.5703 46.8468 75.359 37.4253 75.359C29.9302 75.359 22.8636 72.9074 17.0817 68.6729C15.3685 67.5585 13.8696 65.9986 12.3706 64.6612C13.2272 63.5468 14.5119 62.8782 17.296 61.7639L18.3666 61.3183C20.5081 60.4267 23.506 59.3123 27.3606 57.5293C28.003 57.3066 28.4313 56.8608 28.8596 56.4152C29.0736 56.1922 29.2879 55.9694 29.2879 55.5236C29.5019 55.0778 29.7162 54.4092 29.7162 53.9634V46.386C29.5019 46.1632 29.5019 46.163 29.2879 45.9402C28.6453 45.0488 28.2172 43.9344 28.2172 42.5973L27.7889 42.3743C25.8615 42.8201 26.0757 40.8143 25.6474 36.8026C25.4332 35.2424 25.6474 34.7968 26.504 34.5738L27.1464 33.6824C25.8615 30.5621 25.2192 27.665 25.2192 25.4362C25.2192 21.6475 26.7181 19.1959 28.8596 18.0816C27.5747 15.407 27.5747 14.5156 27.5747 14.5156C27.5747 14.5156 35.0698 15.8528 37.6393 15.407C40.8515 14.7384 45.9915 15.63 47.9191 20.0873C51.1298 21.4245 52.2021 23.4304 52.6298 25.659C53.0574 29.2249 51.1298 33.0139 50.7021 34.5738V34.7968C51.1298 35.0196 51.3447 35.4654 51.1298 37.0254C50.7021 40.8143 50.7021 43.0428 48.9894 42.5973L47.2766 45.7174C47.2766 46.163 47.2766 46.1632 47.0617 46.386C47.0617 47.0546 47.0617 48.1689 47.0617 54.1864C47.0617 54.855 47.2766 55.7464 47.7042 56.1922C47.9191 56.4152 47.9191 56.638 48.1319 56.638C48.5617 57.0838 48.9893 57.5293 49.417 57.5293C53.7 59.3123 56.6978 60.6497 59.0532 61.5411C61.1957 62.4327 62.6936 63.1013 63.5511 63.7698Z" fill="white"/>
<path d="M63.5511 63.7697C63.1234 64.4383 62.4808 64.8841 61.8383 65.3299C55.4128 71.5701 46.8468 75.3588 37.4253 75.3588C29.9302 75.3588 22.8636 72.9073 17.0817 68.6728C15.3685 67.5584 13.8696 65.9984 12.3706 64.661C13.2272 63.5469 14.5119 62.8781 17.296 61.7639L18.3666 61.3181C20.5081 60.4265 23.506 59.3124 27.3606 57.5294C28.003 57.3064 28.4313 56.8608 28.8596 56.415C31.0011 59.5352 34.4272 61.5409 38.4959 61.5409C42.3506 61.5409 45.7766 59.5352 47.9191 56.6378C48.3468 57.0836 48.7745 57.5294 49.2021 57.5294C53.4851 59.3124 56.483 60.6496 58.8404 61.5409C61.1957 62.4325 62.6936 63.1011 63.5511 63.7697Z" fill="#EAEEF9"/>
<path d="M50.4872 34.351C50.7021 33.4594 50.2745 32.1223 49.8447 31.4537C49.8447 31.2309 49.6319 31.2309 49.6319 31.0079C48.1319 27.8878 44.9191 26.7734 41.9221 26.5506C33.9987 26.1048 33.3564 27.665 31.0008 25.4362C31.8574 26.5506 31.8574 28.5563 30.5725 30.7851C29.716 32.3451 28.217 33.2366 26.7179 33.6824C23.0774 25.2134 25.0049 19.8645 28.4311 18.0816C27.1462 15.407 27.1462 14.5156 27.1462 14.5156C27.1462 14.5156 34.6413 15.8528 37.2108 15.407C40.4232 14.7384 45.5617 15.63 47.4893 20.0873C50.7021 21.4245 51.7723 23.4304 52.2 25.659C52.8425 29.0021 50.917 32.7909 50.4872 34.351Z" fill="#A2ABBC"/>
<path d="M29.9302 53.9637V46.3862C29.7162 46.1632 29.7161 46.1632 29.5019 45.9404V45.4946C29.9302 46.1632 30.3585 46.8318 31.0011 47.2776L36.7827 51.5121C38.0676 52.6265 39.9949 52.6265 41.2798 51.5121L46.634 46.609C46.8468 46.3862 47.0617 46.3862 47.2766 46.1632C47.2766 46.8318 47.2766 47.9462 47.2766 53.9637C47.2766 54.4094 47.2766 54.6322 47.4893 55.078H29.9302C29.7162 54.6322 29.9302 54.4094 29.9302 53.9637Z" fill="url(#paint0_linear_312_3443)"/>
<path d="M73.4021 38.1395C73.4021 49.0601 68.9042 58.6435 61.8383 65.5526C55.4127 71.7928 46.8468 75.5816 37.4253 75.5816C29.9302 75.5816 22.8636 73.13 17.0817 68.8955C7.65936 62.2094 1.66339 51.0661 1.66339 38.3623C1.66339 17.8583 17.7242 1.14307 37.4253 1.14307C57.1255 1.14307 73.4021 17.6355 73.4021 38.1395Z" stroke="white" stroke-width="1.6604" stroke-miterlimit="10" stroke-linecap="round" stroke-linejoin="round"/>
<defs>
<linearGradient id="paint0_linear_312_3443" x1="38.4613" y1="54.7796" x2="38.4613" y2="49.7599" gradientUnits="userSpaceOnUse">
<stop stop-color="white"/>
<stop offset="0.9913" stop-color="#D6DEEA"/>
</linearGradient>
</defs>
</svg>
