<svg width="72" height="75" viewBox="0 0 72 75" fill="none" xmlns="http://www.w3.org/2000/svg">
<path d="M71.037 37.842C71.037 48.3163 66.7541 57.6769 59.9015 64.3628C57.9743 66.146 56.047 67.7057 53.6915 69.0442C48.5519 72.1637 42.556 73.9469 36.1317 73.9469C29.7075 73.9469 23.7115 72.1637 18.5721 69.0442C17.7155 68.5973 17.073 68.1526 16.2164 67.4845C7.22255 61.0199 1.22638 50.0995 1.22638 37.842C1.22638 17.7836 16.8589 1.73713 35.9177 1.73713C55.4045 1.51412 71.037 17.7836 71.037 37.842Z" fill="#DCE2F0"/>
<path d="M29.0651 45.8644C29.4934 46.3102 29.9217 46.9788 30.564 47.4248C30.9923 47.8695 31.4206 48.0929 31.8489 48.5398C32.0632 48.7611 32.4915 48.9845 32.7055 49.208C32.7055 49.208 32.9198 49.208 32.9198 49.4314L33.1338 49.6527V52.7743C33.1338 52.7743 33.1338 52.7743 32.9198 52.5509C32.7055 52.3274 32.2772 52.104 32.0632 51.8827C31.6349 51.6593 31.2066 51.2124 30.7783 50.9911C30.564 50.9911 30.564 50.7677 30.35 50.7677C28.8511 49.8761 27.5662 48.9845 27.5662 47.8695C27.7802 47.4248 28.2085 46.756 29.0651 45.8644ZM59.4734 63.2478C58.1885 60.3518 55.833 57.4535 52.8349 55.8938C51.336 55.2257 49.6228 54.5553 47.9098 54.5553C47.4815 54.5553 46.8389 54.5553 46.4106 54.5553C46.1966 54.5553 45.9823 54.5553 45.7683 54.5553C43.4128 54.3341 43.1985 53.8872 43.1985 53.8872V48.7611C44.6975 47.4248 46.1966 45.8644 47.4815 44.3044C48.5521 42.7442 49.4087 40.9613 49.837 38.7325C51.7643 38.2869 53.0491 36.504 52.8349 34.2752C52.8349 33.3836 52.1926 32.4923 52.1926 31.6007C52.1926 31.1551 52.1926 30.7093 52.1926 30.2635C52.1926 30.0407 52.1926 29.5949 52.1926 29.3721C52.1926 29.1491 52.1926 28.7035 52.1926 28.4805C51.9783 26.9206 51.5502 25.3604 50.6936 23.5774C48.1238 18.6743 43.4128 15.5542 37.8449 15.5542C36.7743 15.5542 35.7036 15.777 34.6328 15.9998C32.7055 16.4456 30.7783 17.3372 29.2794 18.6743C29.0651 18.8971 28.6368 19.1201 28.4228 19.5657L28.2085 19.7887C26.4955 21.5717 24.9964 23.5774 24.354 26.029C23.4974 28.4805 23.4974 30.9321 23.7115 33.3836C23.7115 33.3836 23.7115 33.3836 23.7115 33.6066V33.8294C23.7115 34.2752 23.9257 34.2752 23.7115 34.498C23.7115 34.721 23.4974 34.721 23.4974 34.9438C23.0691 35.6124 22.8551 36.504 23.2832 37.8411C24.1398 40.0697 25.4247 39.8469 26.9236 40.9613C26.9236 40.9613 26.7096 40.9613 26.7096 41.1841L25.2106 41.6299C18.3581 43.8586 16.0023 49.8761 19.0004 53.6659C20.0711 55.0022 21.7843 56.1173 24.354 56.7854C23.7115 56.7854 23.0691 57.2301 22.6409 57.677C19.6428 60.1283 17.7155 63.9159 17.2872 67.4823C17.2872 67.7058 17.2872 67.9292 17.2872 68.1505C18.1438 68.5974 18.7864 69.2655 19.6428 69.7124H53.6915C55.833 68.3739 57.9745 66.8142 59.9017 65.031C59.6874 63.9159 59.6874 63.4712 59.4734 63.2478Z" fill="white"/>
<path d="M59.9015 64.3626C57.9743 66.1458 56.047 67.7055 53.6915 69.044C48.5519 72.1635 42.556 73.9467 36.1317 73.9467C29.7074 73.9467 23.7115 72.1635 18.5719 69.044C17.7155 68.5971 17.073 68.1524 16.2164 67.4821C16.2164 67.2608 16.2164 67.0374 16.2164 66.8139C16.6447 63.2476 18.5721 59.46 21.57 57.0086C21.9983 56.5617 22.6406 56.3405 23.2832 56.117C20.7134 55.6701 19.0002 54.5573 17.9296 52.9976H26.067C28.4225 56.3405 32.063 58.3449 36.3459 58.3449C39.9864 58.3449 43.1985 56.7852 45.554 54.3339C45.7681 54.3339 45.9823 54.3339 46.1964 54.3339C46.6247 54.3339 47.053 54.3339 47.6953 54.3339C49.4085 54.3339 51.1217 54.7785 52.6206 55.6701C55.6187 57.2321 57.7602 59.9046 59.2591 63.0263C59.6874 63.471 59.6874 63.9179 59.9015 64.3626Z" fill="#EAEEF9"/>
<path d="M43.4127 48.7632V53.4424L29.9219 53.8893L30.5642 50.7676C30.7783 50.7676 30.7783 50.991 30.9925 50.991C31.4208 51.2145 31.8491 51.6592 32.2774 51.8826C32.4915 52.1061 32.7057 52.3273 33.134 52.5508C33.134 52.5508 33.3481 52.5508 33.3481 52.7742V49.6548L33.134 49.4313C35.4896 50.7676 38.7017 51.6592 43.4127 48.7632Z" fill="url(#paint0_linear_312_3444)"/>
<path d="M52.1926 29.3727C49.6228 30.2641 46.6249 30.7099 43.8411 30.4871C39.344 30.0413 35.0611 28.2584 31.6349 25.1382C30.5643 28.4811 27.7802 30.9329 24.5681 32.4929C24.1398 32.7159 23.7115 32.9387 23.2834 32.9387C23.2834 32.9387 23.2834 32.9387 23.2834 32.7159C23.0692 30.2641 23.0692 27.8126 23.9258 25.361C24.5681 22.9095 26.0672 20.9037 27.7802 19.1208L27.9945 18.898C28.2085 18.675 28.6368 18.4522 28.8511 18.0064C30.35 16.6692 32.2772 15.7776 34.2047 15.332C35.2753 15.109 36.346 14.8862 37.4168 14.8862C42.9845 14.8862 47.9098 18.0064 50.2653 22.9095C51.1219 24.6924 51.5502 26.4754 51.7643 27.8126C52.1926 28.7042 52.1926 29.15 52.1926 29.3727Z" fill="#A2ABBC"/>
<path d="M35.0613 62.3584C33.7764 63.9181 31.6351 63.9181 29.7077 63.9181C31.6351 61.9115 30.5642 55.4491 23.7117 56.1172C14.2894 54.334 15.1459 44.082 24.5683 40.9619L26.0672 40.5161L26.2815 40.7389C26.9238 42.7449 27.9947 44.5278 29.0653 45.865C25.2106 49.2079 30.5643 50.0995 33.134 52.7743C35.2755 54.1106 37.2028 59.6836 35.0613 62.3584Z" fill="#A2ABBC"/>
<path d="M71.037 37.842C71.037 48.3163 66.754 57.6769 59.9015 64.3628C57.9743 66.146 56.047 67.7057 53.6915 69.0442C48.5519 72.1637 42.556 73.9469 36.1317 73.9469C29.7075 73.9469 23.7115 72.1637 18.5721 69.0442C17.7155 68.5973 17.073 68.1526 16.2164 67.4845C7.22255 61.0199 1.22638 50.0995 1.22638 37.842C1.22638 17.7836 16.8589 1.73713 35.9177 1.73713C55.4045 1.51412 71.037 17.7836 71.037 37.842Z" stroke="white" stroke-width="1.6434" stroke-miterlimit="10" stroke-linecap="round" stroke-linejoin="round"/>
<defs>
<linearGradient id="paint0_linear_312_3444" x1="36.6413" y1="53.7278" x2="36.6413" y2="51.0441" gradientUnits="userSpaceOnUse">
<stop stop-color="white"/>
<stop offset="0.9913" stop-color="#D6DEEA"/>
</linearGradient>
</defs>
</svg>
