<svg width="226" height="183" viewBox="0 0 226 183" fill="none" xmlns="http://www.w3.org/2000/svg">
<path d="M163 9.57956V96.4204C163 101.627 158.623 106 153.412 106H9.58823C4.37724 106 0 101.835 0 96.4204V9.57956C0 4.37328 4.37724 0 9.58823 0H153.412C158.623 0 163 4.37328 163 9.57956Z" fill="#D5DDEA"/>
<path opacity="0.3" d="M163 38V96.3457C163 101.593 158.625 106 153.417 106H33V47.6543C33 42.4074 37.1667 38 42.5833 38H163Z" fill="#989FB0"/>
<g filter="url(#filter0_d_319_3452)">
<path d="M188.684 149.683H55.0218C46.8895 149.683 40.4253 143.219 40.4253 135.087V58.1424C40.4253 50.0101 46.8895 43.5459 55.0218 43.5459H188.684C196.816 43.5459 203.281 50.0101 203.281 58.1424V135.087C203.281 143.219 196.816 149.683 188.684 149.683Z" fill="url(#paint0_linear_319_3452)"/>
</g>
<path d="M81.6567 126H60.3433C58.4627 126 57 124.469 57 122.5C57 120.531 58.4627 119 60.3433 119H81.6567C83.5373 119 85 120.531 85 122.5C85 124.469 83.5373 126 81.6567 126Z" fill="#D5DDEA"/>
<path d="M115.657 126H94.3433C92.4627 126 91 124.469 91 122.5C91 120.531 92.4627 119 94.3433 119H115.657C117.537 119 119 120.531 119 122.5C119 124.469 117.537 126 115.657 126Z" fill="#D5DDEA"/>
<path d="M150.657 126H129.343C127.463 126 126 124.469 126 122.5C126 120.531 127.463 119 129.343 119H150.657C152.537 119 154 120.531 154 122.5C154 124.469 152.537 126 150.657 126Z" fill="#D5DDEA"/>
<path d="M184.657 126H163.343C161.463 126 160 124.469 160 122.5C160 120.531 161.463 119 163.343 119H184.657C186.537 119 188 120.531 188 122.5C188 124.469 186.537 126 184.657 126Z" fill="#D5DDEA"/>
<path d="M177 85C184.18 85 190 79.6274 190 73C190 66.3726 184.18 61 177 61C169.82 61 164 66.3726 164 73C164 79.6274 169.82 85 177 85Z" fill="#989FB0"/>
<path d="M161 85C167.627 85 173 79.6274 173 73C173 66.3726 167.627 61 161 61C154.373 61 149 66.3726 149 73C149 79.6274 154.373 85 161 85Z" fill="#D5DDEA"/>
<path d="M163 17H0V38H163V17Z" fill="#989FB0"/>
<path d="M83.1029 89H60.083C58.4387 89 57 87.6275 57 86.0588V71.9412C57 70.3725 58.4387 69 60.083 69H82.8973C84.5416 69 85.9804 70.3725 85.9804 71.9412V86.0588C86.1859 87.6275 84.7472 89 83.1029 89Z" fill="#D5DDEA"/>
<defs>
<filter id="filter0_d_319_3452" x="18.4253" y="32.5459" width="206.855" height="150.138" filterUnits="userSpaceOnUse" color-interpolation-filters="sRGB">
<feFlood flood-opacity="0" result="BackgroundImageFix"/>
<feColorMatrix in="SourceAlpha" type="matrix" values="0 0 0 0 0 0 0 0 0 0 0 0 0 0 0 0 0 0 127 0" result="hardAlpha"/>
<feOffset dy="11"/>
<feGaussianBlur stdDeviation="11"/>
<feColorMatrix type="matrix" values="0 0 0 0 0.397708 0 0 0 0 0.47749 0 0 0 0 0.575 0 0 0 0.27 0"/>
<feBlend mode="normal" in2="BackgroundImageFix" result="effect1_dropShadow_319_3452"/>
<feBlend mode="normal" in="SourceGraphic" in2="effect1_dropShadow_319_3452" result="shape"/>
</filter>
<linearGradient id="paint0_linear_319_3452" x1="121.8" y1="41.091" x2="121.8" y2="150.828" gradientUnits="userSpaceOnUse">
<stop stop-color="#FDFEFF"/>
<stop offset="0.9964" stop-color="#ECF0F5"/>
</linearGradient>
</defs>
</svg>
