<svg width="33" height="32" viewBox="0 0 33 32" fill="none" xmlns="http://www.w3.org/2000/svg">
<path d="M3.18409 9H30.1004V25.3968H28.6815L28.3544 24.8403H29.5337V9.5564H3.46708V24.8403H21.8614L21.5343 25.3968H2.90039V9H3.18409Z" fill="#FAFAFA" stroke="#FAFAFA" stroke-width="0.4" stroke-miterlimit="10" stroke-linecap="round" stroke-linejoin="round"/>
<path d="M6.38379 13.1312H25.0191V13.6876H6.38379V13.1312Z" fill="#FAFAFA" stroke="#FAFAFA" stroke-width="0.2" stroke-miterlimit="10" stroke-linecap="round" stroke-linejoin="round"/>
<path d="M6.1748 15.9297H24.8101V16.4861H6.1748V15.9297Z" fill="#FAFAFA" stroke="#FAFAFA" stroke-width="0.2" stroke-miterlimit="10" stroke-linecap="round" stroke-linejoin="round"/>
<path d="M5.9668 18.7297H19.9088V19.2861H5.9668V18.7297Z" fill="#FAFAFA" stroke="#FAFAFA" stroke-width="0.2" stroke-miterlimit="10" stroke-linecap="round" stroke-linejoin="round"/>
<path d="M5.75684 21.5289H15.9439V22.0854H5.75684V21.5289Z" fill="#FAFAFA" stroke="#FAFAFA" stroke-width="0.2" stroke-miterlimit="10" stroke-linecap="round" stroke-linejoin="round"/>
<path d="M25.1931 17.718L25.8829 17.9319L26.5735 18.0315L26.7283 18.1065L27.2219 18.5733L27.7921 18.9431L27.9007 19.0758L28.1473 19.708L28.5048 20.2929L28.5447 20.4559L28.4893 21.1646L28.5447 21.8733L28.5048 22.0363L28.1473 22.6212L27.9007 23.2534L27.7921 23.3861L27.2219 23.7559L26.7283 24.2227L26.5735 24.2977L25.8829 24.3973L25.1931 24.6111H25.0226L24.3327 24.3973L23.6421 24.2977L23.4873 24.2227L22.9937 23.7559L22.4235 23.3861L22.315 23.2534L22.0683 22.6212L21.7109 22.0363L21.6709 21.8733L21.7263 21.1646L21.6709 20.4559L21.7109 20.2929L22.0683 19.708L22.315 19.0758L22.4235 18.9431L22.9937 18.5733L23.487 18.1065L23.6418 18.0315L24.3325 17.9319L25.0226 17.718H25.1931ZM25.7329 18.4687L25.1078 18.2747L24.4827 18.4687L24.4385 18.4784L23.8133 18.5686L23.3666 18.9913L23.3266 19.0229L22.8116 19.357L22.5897 19.9261L22.5677 19.9695L22.2423 20.5016L22.2927 21.1442V21.1854L22.2423 21.828L22.5677 22.3601L22.5897 22.4036L22.8116 22.9724L23.3266 23.3065L23.3666 23.338L23.8133 23.7608L24.4385 23.851L24.4827 23.8606L25.1078 24.0547L25.7329 23.8606L25.7772 23.851L26.4023 23.7608L26.849 23.338L26.889 23.3065L27.4041 22.9724L27.6259 22.4036L27.6479 22.3601L27.9733 21.828L27.9229 21.1854V21.1442L27.9733 20.5016L27.6479 19.9695L27.6259 19.9261L27.4041 19.3572L26.889 19.0231L26.849 18.9916L26.4023 18.5688L25.7772 18.4786L25.7329 18.4689V18.4687Z" fill="#FAFAFA" stroke="#FAFAFA" stroke-width="0.1" stroke-miterlimit="10" stroke-linecap="round" stroke-linejoin="round"/>
<path d="M25.1072 19.0414C25.7042 19.0414 26.2446 19.2791 26.6359 19.6631C27.027 20.0472 27.2691 20.578 27.2691 21.1642C27.2691 21.7504 27.027 22.2809 26.6359 22.6653C26.2448 23.0493 25.7042 23.287 25.1072 23.287C24.5102 23.287 23.9698 23.0492 23.5785 22.6653C23.1874 22.2812 22.9453 21.7504 22.9453 21.1642C22.9453 20.578 23.1874 20.0474 23.5785 19.6631C23.9696 19.2791 24.5102 19.0414 25.1072 19.0414ZM26.2352 20.0566C25.9466 19.7732 25.5477 19.5978 25.1072 19.5978C24.6667 19.5978 24.2678 19.7732 23.9792 20.0566C23.6905 20.34 23.5119 20.7318 23.5119 21.1642C23.5119 21.5967 23.6905 21.9884 23.9792 22.2718C24.2678 22.5553 24.6667 22.7307 25.1072 22.7307C25.5476 22.7307 25.9466 22.5553 26.2352 22.2718C26.5239 21.9884 26.7025 21.5967 26.7025 21.1642C26.7025 20.7318 26.5239 20.34 26.2352 20.0566Z" fill="#FAFAFA" stroke="#FAFAFA" stroke-width="0.1" stroke-miterlimit="10" stroke-linecap="round" stroke-linejoin="round"/>
<path d="M27.2243 23.7539L28.9303 26.6552L29.2056 27.1234L27.8638 26.9938L27.5182 27.7186L27.289 28.2L27.0181 27.7392L25.1787 24.6111H25.1924L25.7317 24.4437L27.2364 27.0025L27.437 26.5812L27.5218 26.4033L27.7203 26.4225L28.1661 26.4654L26.8046 24.1501L27.2215 23.7556L27.2243 23.7539Z" fill="#FAFAFA" stroke="#FAFAFA" stroke-width="0.1" stroke-miterlimit="10" stroke-linecap="round" stroke-linejoin="round"/>
<path d="M23.4108 24.1501L22.0493 26.4654L22.495 26.4224L22.6936 26.4033L22.7784 26.5812L22.979 27.0025L24.4837 24.4437L25.023 24.6111H25.0367L23.1973 27.7392L22.9263 28.2L22.6971 27.7186L22.3519 26.9938L21.5572 27.0705L21.0098 27.1235L21.285 26.6552L22.9911 23.7539L23.4108 24.1501Z" fill="#FAFAFA" stroke="#FAFAFA" stroke-width="0.00723388" stroke-miterlimit="10" stroke-linecap="round" stroke-linejoin="round"/>
</svg>
