<svg width="40" height="40" viewBox="0 0 40 40" fill="none" xmlns="http://www.w3.org/2000/svg">
<path d="M19.4761 25.1453V26.2902H20.5245V25.1453C21.1332 24.9284 21.573 24.3516 21.573 23.6693C21.573 22.8023 20.8675 22.0966 20.0004 22.0966C19.1334 22.0966 18.4277 22.8021 18.4277 23.6693C18.4275 24.3516 18.8673 24.9283 19.476 25.1453H19.4761ZM20.0002 23.1452C20.289 23.1452 20.5244 23.3804 20.5244 23.6693C20.5244 23.9581 20.289 24.1934 20.0002 24.1934C19.7114 24.1934 19.4761 23.9581 19.4761 23.6693C19.4761 23.3804 19.7114 23.1452 20.0002 23.1452Z" fill="#1E3C52"/>
<path d="M36.2497 20C36.2497 14.9309 33.958 10.2709 29.9593 7.16663V5.8468H27.9716C25.545 4.47705 22.7931 3.75 19.9999 3.75C17.2066 3.75 14.4545 4.47705 12.0282 5.8468H10.0404V7.16663C6.04193 10.2708 3.75 14.9312 3.75 20C3.75 25.0687 6.0417 29.7284 10.0404 32.8327V34.1532H12.0282C14.4552 35.5229 17.2071 36.25 19.9999 36.25C22.7926 36.25 25.5447 35.5229 27.9716 34.1532H29.9593V32.8327C33.9578 29.7285 36.2497 25.0693 36.2497 20ZM29.9593 13.2174C30.9164 14.6222 31.566 16.2116 31.862 17.903H29.9593V13.2174ZM28.9108 17.903H24.1932C24.1932 15.5909 22.3118 13.7095 19.9997 13.7095C17.6876 13.7095 15.8062 15.5909 15.8062 17.903H11.0885V10.5511C12.045 11.8286 13.5664 12.6608 15.2821 12.6608H24.7174C26.4331 12.6608 27.9542 11.8284 28.911 10.5509L28.9108 17.903ZM25.2417 26.8143V22.0967H28.911V31.6551L28.4046 30.7691C27.9349 29.9462 27.0541 29.4353 26.1059 29.4353H13.8936C12.9457 29.4353 12.0652 29.9462 11.5951 30.7687L11.0886 31.6551V22.0967H14.758V26.8143C14.758 27.6813 15.4635 28.387 16.3306 28.387H23.6692C24.5359 28.387 25.2416 27.6815 25.2416 26.8143H25.2417ZM29.9593 22.0967H31.862C31.5659 23.7883 30.9164 25.3775 29.9593 26.7824V22.0967ZM10.0399 26.7824C9.08272 25.3775 8.43323 23.7881 8.13718 22.0967H10.0399V26.7824ZM28.5316 33.1047H11.4669L12.5043 31.2895C12.7886 30.7926 13.32 30.4838 13.8931 30.4838H26.106C26.6785 30.4838 27.2105 30.7926 27.4941 31.2895L28.5316 33.1047ZM23.1445 20.0004H22.0961V17.9036C22.0961 16.7472 21.1557 15.8069 19.9994 15.8069C18.8429 15.8069 17.9026 16.7472 17.9026 17.9036V20.0004H16.8541V17.9036C16.8541 16.1691 18.2647 14.7584 19.9994 14.7584C21.7338 14.7584 23.1445 16.1689 23.1445 17.9036V20.0004ZM18.9508 18.9519H21.0476V20.0004H18.9508V18.9519ZM18.9508 17.9037C18.9508 17.3256 19.421 16.8552 19.9993 16.8552C20.5774 16.8552 21.0477 17.3254 21.0477 17.9037H18.9508ZM16.3299 21.0489H23.6685C23.9573 21.0489 24.1926 21.2842 24.1926 21.573V26.815C24.1926 27.1038 23.9573 27.3391 23.6685 27.3391H16.3299C16.0411 27.3391 15.8058 27.1038 15.8058 26.815V21.573C15.8058 21.2842 16.0411 21.0489 16.3299 21.0489ZM10.0395 17.9037H8.13681C8.43291 16.212 9.0824 14.6228 10.0395 13.218V17.9037ZM19.999 4.79929C21.896 4.79929 23.771 5.16204 25.5258 5.84776L14.4719 5.84753C16.2268 5.16204 18.1018 4.79929 19.9988 4.79929H19.999ZM11.0876 6.89604H28.9102V7.42016C28.9102 9.7323 27.0289 11.6137 24.7167 11.6137H15.2814C12.9692 11.6137 11.0879 9.7323 11.0879 7.42016L11.0876 6.89604ZM4.79719 20.0004C4.79719 15.5369 6.69626 11.4123 10.0392 8.52105V11.4974C8.37789 13.4416 7.32759 15.8083 7.00773 18.3629L6.93364 18.9519H15.8049V20.0968C15.361 20.255 15.0112 20.6048 14.853 21.0486L6.9335 21.0489L7.00741 21.6385C7.32705 24.193 8.37757 26.5595 10.0388 28.5041V31.4802C6.69612 28.5889 4.7971 24.4643 4.7971 20.0008L4.79719 20.0004ZM19.9984 35.2016C18.1018 35.2016 16.2268 34.8389 14.4718 34.1531H25.5247C23.7698 34.8389 21.8947 35.2016 19.9981 35.2016H19.9984ZM29.9578 31.4798V28.5035C31.6191 26.5593 32.6694 24.1926 32.9892 21.6379L33.0631 21.0485H25.1436C24.9853 20.6046 24.6356 20.2549 24.1917 20.0966V18.9516H33.063L32.9891 18.3619C32.6694 15.8075 31.6189 13.4403 29.9576 11.4964V8.52073C33.3004 11.4121 35.1996 15.5372 35.1996 20.0001C35.1994 24.4636 33.3003 28.5882 29.9576 31.4795L29.9578 31.4798Z" fill="#1E3C52"/>
</svg>
