<svg width="40" height="40" viewBox="0 0 40 40" fill="none" xmlns="http://www.w3.org/2000/svg">
<path d="M20.0196 2.45446L19.999 2.44511L19.9783 2.45445L12.5887 5.80178L12.4885 5.84719L12.5886 5.89282L12.9972 6.07892V9.08389V9.13389H13.0472H13.7092H13.7592V9.08389V6.42426L14.6002 6.80516V10.6975V10.7475H14.6502H25.3475H25.3975V10.6975V6.80565L27.4099 5.89341L27.5104 5.84785L27.4099 5.80232L20.0196 2.45446ZM20.0198 9.24187L24.6353 7.15085L24.6348 10.0175H15.3619L15.3618 7.15035L19.9785 9.24187L19.9991 9.25121L20.0198 9.24187ZM25.7278 5.84809L19.999 8.44396L14.2692 5.84809L19.999 3.25232L25.7278 5.84809Z" fill="#1E3C52" stroke="#1E3C52" stroke-width="0.1"/>
<mask id="path-2-outside-1_551_4647" maskUnits="userSpaceOnUse" x="4" y="9.02941" width="32" height="29" fill="black">
<rect fill="white" x="4" y="9.02941" width="32" height="29"/>
<path d="M5.35401 32.3118H15.8864V37.1387C15.8859 37.2759 15.9675 37.4013 16.0966 37.4624C16.2259 37.5234 16.3803 37.5092 16.4949 37.426L20.0001 34.8842L23.5063 37.426C23.5726 37.474 23.6532 37.5 23.7364 37.5C23.837 37.4998 23.9333 37.4615 24.0041 37.3937C24.075 37.326 24.1146 37.2342 24.1141 37.1387V32.3118H34.6459C34.8557 32.3118 34.9994 32.1316 34.9994 31.932V10.3817C35.0051 10.2897 34.9701 10.1993 34.9031 10.1325C34.836 10.0658 34.7429 10.0283 34.6459 10.0294H5.3541C5.2571 10.0283 5.16401 10.0658 5.09688 10.1325C5.02999 10.1993 4.99493 10.2897 5.00059 10.3817V31.932C5.00059 32.1316 5.14433 32.3118 5.3541 32.3118H5.35401ZM22.2098 27.9312C21.7997 27.9104 21.3935 28.0149 21.0502 28.2294L20.6359 28.4892V28.4894C20.4471 28.6079 20.2259 28.6713 19.9996 28.6713C19.7734 28.6713 19.5521 28.6079 19.3634 28.4894L18.949 28.2295V28.2294C18.635 28.0334 18.268 27.9287 17.8925 27.9282C17.8582 27.9282 17.8236 27.9291 17.7892 27.931L17.282 27.9575H17.2823C17.058 27.9691 16.8352 27.9183 16.6405 27.8114C16.4462 27.7046 16.2886 27.546 16.1874 27.3553L15.9614 26.9298C15.7778 26.5818 15.481 26.2996 15.1153 26.1248L14.6682 25.9099C14.4677 25.8136 14.3009 25.6636 14.1886 25.4785C14.0762 25.2933 14.0229 25.081 14.0353 24.8676L14.0631 24.3852C14.0848 23.9948 13.975 23.6083 13.7496 23.2816L13.4766 22.8874V22.8876C13.3518 22.7077 13.2854 22.4972 13.2854 22.2821C13.2854 22.0668 13.3518 21.8563 13.4766 21.6767L13.7496 21.2824V21.2822C13.975 20.9557 14.0848 20.5692 14.0631 20.1791L14.0353 19.6964C14.0229 19.4829 14.0762 19.2706 14.1886 19.0856C14.3009 18.9004 14.4677 18.7505 14.6682 18.6542L15.1153 18.4393C15.481 18.2644 15.7778 17.9822 15.9614 17.6342L16.1874 17.2086C16.2888 17.018 16.4464 16.8595 16.6408 16.7526C16.8352 16.6457 17.058 16.595 17.2822 16.6063L17.7895 16.6328V16.633C18.1995 16.6537 18.6056 16.5491 18.949 16.3347L19.3633 16.0749C19.5521 15.9562 19.7733 15.8929 19.9996 15.8929C20.2258 15.8929 20.4471 15.9562 20.6358 16.0749L21.0502 16.3347C21.3935 16.5491 21.7997 16.6537 22.2097 16.633L22.7169 16.6066V16.6063C22.9412 16.5947 23.164 16.6455 23.3586 16.7526C23.553 16.8595 23.7105 17.018 23.8118 17.2086L24.0378 17.634V17.6342C24.2214 17.982 24.5182 18.2644 24.8839 18.4393L25.3309 18.6542C25.5314 18.7505 25.6983 18.9004 25.8106 19.0856C25.923 19.2707 25.9763 19.4828 25.9638 19.6964L25.9361 20.1788C25.9143 20.569 26.0242 20.9557 26.2495 21.2824L26.5226 21.6767V21.6765C26.6474 21.856 26.7138 22.0666 26.7138 22.2819C26.7138 22.4972 26.6474 22.7078 26.5226 22.8874L26.2495 23.2816C26.0242 23.6083 25.9143 23.9948 25.9361 24.385L25.9638 24.8676C25.9763 25.0812 25.923 25.2933 25.8106 25.4785C25.6983 25.6636 25.5315 25.8136 25.3309 25.9099L24.8839 26.1248C24.5182 26.2996 24.2214 26.5818 24.0378 26.9298L23.8121 27.3555C23.7105 27.546 23.553 27.7046 23.3586 27.8114C23.1643 27.9183 22.9414 27.9691 22.7171 27.9577L22.2098 27.9312ZM24.1134 28.1648C24.2589 28.0188 24.385 27.8566 24.489 27.6813L24.7155 27.2557C24.8265 27.0458 25.0055 26.8754 25.2263 26.77L25.6736 26.5551V26.5549C26.0059 26.3953 26.2821 26.1469 26.4683 25.8402C26.6546 25.5335 26.743 25.1819 26.7224 24.828L26.6946 24.3454C26.6815 24.1099 26.7477 23.8767 26.8835 23.6795L27.1568 23.2853C27.3634 22.9876 27.4737 22.6387 27.4737 22.2821C27.4737 21.9253 27.3634 21.5765 27.1568 21.2788L26.8835 20.8845C26.7477 20.6875 26.6815 20.4541 26.6946 20.2186L26.7224 19.7362H26.7226C26.743 19.3824 26.6548 19.0305 26.4686 18.7237C26.2821 18.4171 26.0059 18.1686 25.6736 18.0089L25.2265 17.794C25.0057 17.6884 24.8267 17.518 24.7159 17.3081L24.4899 16.8827V16.8825C24.3222 16.5663 24.0611 16.3035 23.7388 16.1261C23.4165 15.9488 23.047 15.8649 22.6751 15.8845L22.1681 15.911C21.9206 15.9234 21.6754 15.8604 21.4681 15.7312L21.0538 15.4713L21.054 15.4711C20.7412 15.2746 20.3746 15.1698 19.9996 15.1698C19.6245 15.1698 19.258 15.2746 18.9451 15.4711L18.5308 15.7309L18.531 15.7312C18.3235 15.8602 18.0785 15.9232 17.831 15.911L17.324 15.8845C16.9522 15.8652 16.5827 15.949 16.2603 16.1265C15.938 16.3037 15.6769 16.5665 15.5092 16.8827L15.2832 17.3084C15.1724 17.5183 14.9934 17.6886 14.7726 17.7942L14.3255 18.009C13.9932 18.1687 13.717 18.4171 13.5308 18.7237C13.3446 19.0304 13.2562 19.3823 13.2765 19.7359L13.3043 20.2186H13.3045C13.3176 20.4541 13.2514 20.6872 13.1156 20.8845L12.8423 21.2789C12.6357 21.5766 12.5254 21.9254 12.5254 22.2823C12.5254 22.6389 12.6357 22.9878 12.8423 23.2855L13.1156 23.6797C13.2514 23.8769 13.3176 24.1101 13.3045 24.3456L13.2767 24.828L13.2765 24.8283C13.2562 25.1819 13.3445 25.5335 13.5308 25.8402C13.7171 26.1469 13.9932 26.3953 14.3255 26.5551L14.7726 26.77C14.9934 26.8756 15.1724 27.0459 15.2832 27.2559L15.5101 27.6813V27.6815C15.6141 27.8566 15.7402 28.019 15.8858 28.165V29.0597H12.0822C11.9753 28.3194 11.5738 27.6462 10.9606 27.1795C10.3116 26.6683 9.43039 26.3527 8.41775 26.2805V16.0326C10.443 15.8867 11.8313 14.847 12.0822 13.2812H27.9536C28.2029 14.847 29.6195 15.8857 31.5814 16.0324V26.2808C29.5562 26.4267 28.1677 27.4939 27.917 29.0597H24.1134L24.1134 28.1648ZM16.6454 28.5976C16.8647 28.6653 17.0954 28.693 17.3255 28.6793L17.4682 28.6718V35.8115L16.6454 36.4088L16.6454 28.5976ZM19.7698 34.1427L18.2277 35.2611V28.699C18.3366 28.7259 18.4397 28.7712 18.5314 28.833L18.9455 29.0928V29.093C19.2584 29.2896 19.625 29.3944 19.9998 29.3944C20.3748 29.3944 20.7413 29.2896 21.0542 29.093L21.4681 28.8332V28.833C21.5598 28.7712 21.6629 28.7259 21.7719 28.6992V35.2613L20.2299 34.1429C20.094 34.0444 19.9058 34.0444 19.7699 34.1429L19.7698 34.1427ZM22.5313 35.8117V28.672L22.6739 28.6795C22.904 28.6933 23.1348 28.6656 23.354 28.5978V36.4093L22.5313 35.8117ZM5.76001 10.7525H34.24V31.5897H24.1139V29.783H28.2604C28.4654 29.7774 28.631 29.6219 28.6397 29.4268C28.6665 28.7711 28.988 28.1579 29.5223 27.743C30.1197 27.2681 30.9662 27.0061 31.9652 26.9909V26.9906C32.1737 26.9863 32.3405 26.8248 32.3414 26.6265V15.6881C32.3402 15.4904 32.1732 15.3298 31.9655 15.3268C30.0404 15.2973 28.7493 14.3464 28.6781 12.9015H28.6779C28.6677 12.7088 28.5 12.558 28.2973 12.5591H11.7395C11.5372 12.5582 11.37 12.7093 11.3603 12.9017C11.3334 13.5554 11.0117 14.1664 10.4776 14.5787C9.88023 15.0536 9.03395 15.3121 8.03465 15.3276V15.3275C7.82717 15.3302 7.6599 15.4907 7.65876 15.6881V26.6265C7.6599 26.8242 7.82693 26.9848 8.03465 26.9878C9.98399 27.018 11.2897 27.9824 11.3591 29.4266V29.4265C11.3679 29.6219 11.534 29.7777 11.7395 29.7831H15.8863V31.5897H5.76011L5.76001 10.7525Z"/>
</mask>
<path d="M5.35401 32.3118H15.8864V37.1387C15.8859 37.2759 15.9675 37.4013 16.0966 37.4624C16.2259 37.5234 16.3803 37.5092 16.4949 37.426L20.0001 34.8842L23.5063 37.426C23.5726 37.474 23.6532 37.5 23.7364 37.5C23.837 37.4998 23.9333 37.4615 24.0041 37.3937C24.075 37.326 24.1146 37.2342 24.1141 37.1387V32.3118H34.6459C34.8557 32.3118 34.9994 32.1316 34.9994 31.932V10.3817C35.0051 10.2897 34.9701 10.1993 34.9031 10.1325C34.836 10.0658 34.7429 10.0283 34.6459 10.0294H5.3541C5.2571 10.0283 5.16401 10.0658 5.09688 10.1325C5.02999 10.1993 4.99493 10.2897 5.00059 10.3817V31.932C5.00059 32.1316 5.14433 32.3118 5.3541 32.3118H5.35401ZM22.2098 27.9312C21.7997 27.9104 21.3935 28.0149 21.0502 28.2294L20.6359 28.4892V28.4894C20.4471 28.6079 20.2259 28.6713 19.9996 28.6713C19.7734 28.6713 19.5521 28.6079 19.3634 28.4894L18.949 28.2295V28.2294C18.635 28.0334 18.268 27.9287 17.8925 27.9282C17.8582 27.9282 17.8236 27.9291 17.7892 27.931L17.282 27.9575H17.2823C17.058 27.9691 16.8352 27.9183 16.6405 27.8114C16.4462 27.7046 16.2886 27.546 16.1874 27.3553L15.9614 26.9298C15.7778 26.5818 15.481 26.2996 15.1153 26.1248L14.6682 25.9099C14.4677 25.8136 14.3009 25.6636 14.1886 25.4785C14.0762 25.2933 14.0229 25.081 14.0353 24.8676L14.0631 24.3852C14.0848 23.9948 13.975 23.6083 13.7496 23.2816L13.4766 22.8874V22.8876C13.3518 22.7077 13.2854 22.4972 13.2854 22.2821C13.2854 22.0668 13.3518 21.8563 13.4766 21.6767L13.7496 21.2824V21.2822C13.975 20.9557 14.0848 20.5692 14.0631 20.1791L14.0353 19.6964C14.0229 19.4829 14.0762 19.2706 14.1886 19.0856C14.3009 18.9004 14.4677 18.7505 14.6682 18.6542L15.1153 18.4393C15.481 18.2644 15.7778 17.9822 15.9614 17.6342L16.1874 17.2086C16.2888 17.018 16.4464 16.8595 16.6408 16.7526C16.8352 16.6457 17.058 16.595 17.2822 16.6063L17.7895 16.6328V16.633C18.1995 16.6537 18.6056 16.5491 18.949 16.3347L19.3633 16.0749C19.5521 15.9562 19.7733 15.8929 19.9996 15.8929C20.2258 15.8929 20.4471 15.9562 20.6358 16.0749L21.0502 16.3347C21.3935 16.5491 21.7997 16.6537 22.2097 16.633L22.7169 16.6066V16.6063C22.9412 16.5947 23.164 16.6455 23.3586 16.7526C23.553 16.8595 23.7105 17.018 23.8118 17.2086L24.0378 17.634V17.6342C24.2214 17.982 24.5182 18.2644 24.8839 18.4393L25.3309 18.6542C25.5314 18.7505 25.6983 18.9004 25.8106 19.0856C25.923 19.2707 25.9763 19.4828 25.9638 19.6964L25.9361 20.1788C25.9143 20.569 26.0242 20.9557 26.2495 21.2824L26.5226 21.6767V21.6765C26.6474 21.856 26.7138 22.0666 26.7138 22.2819C26.7138 22.4972 26.6474 22.7078 26.5226 22.8874L26.2495 23.2816C26.0242 23.6083 25.9143 23.9948 25.9361 24.385L25.9638 24.8676C25.9763 25.0812 25.923 25.2933 25.8106 25.4785C25.6983 25.6636 25.5315 25.8136 25.3309 25.9099L24.8839 26.1248C24.5182 26.2996 24.2214 26.5818 24.0378 26.9298L23.8121 27.3555C23.7105 27.546 23.553 27.7046 23.3586 27.8114C23.1643 27.9183 22.9414 27.9691 22.7171 27.9577L22.2098 27.9312ZM24.1134 28.1648C24.2589 28.0188 24.385 27.8566 24.489 27.6813L24.7155 27.2557C24.8265 27.0458 25.0055 26.8754 25.2263 26.77L25.6736 26.5551V26.5549C26.0059 26.3953 26.2821 26.1469 26.4683 25.8402C26.6546 25.5335 26.743 25.1819 26.7224 24.828L26.6946 24.3454C26.6815 24.1099 26.7477 23.8767 26.8835 23.6795L27.1568 23.2853C27.3634 22.9876 27.4737 22.6387 27.4737 22.2821C27.4737 21.9253 27.3634 21.5765 27.1568 21.2788L26.8835 20.8845C26.7477 20.6875 26.6815 20.4541 26.6946 20.2186L26.7224 19.7362H26.7226C26.743 19.3824 26.6548 19.0305 26.4686 18.7237C26.2821 18.4171 26.0059 18.1686 25.6736 18.0089L25.2265 17.794C25.0057 17.6884 24.8267 17.518 24.7159 17.3081L24.4899 16.8827V16.8825C24.3222 16.5663 24.0611 16.3035 23.7388 16.1261C23.4165 15.9488 23.047 15.8649 22.6751 15.8845L22.1681 15.911C21.9206 15.9234 21.6754 15.8604 21.4681 15.7312L21.0538 15.4713L21.054 15.4711C20.7412 15.2746 20.3746 15.1698 19.9996 15.1698C19.6245 15.1698 19.258 15.2746 18.9451 15.4711L18.5308 15.7309L18.531 15.7312C18.3235 15.8602 18.0785 15.9232 17.831 15.911L17.324 15.8845C16.9522 15.8652 16.5827 15.949 16.2603 16.1265C15.938 16.3037 15.6769 16.5665 15.5092 16.8827L15.2832 17.3084C15.1724 17.5183 14.9934 17.6886 14.7726 17.7942L14.3255 18.009C13.9932 18.1687 13.717 18.4171 13.5308 18.7237C13.3446 19.0304 13.2562 19.3823 13.2765 19.7359L13.3043 20.2186H13.3045C13.3176 20.4541 13.2514 20.6872 13.1156 20.8845L12.8423 21.2789C12.6357 21.5766 12.5254 21.9254 12.5254 22.2823C12.5254 22.6389 12.6357 22.9878 12.8423 23.2855L13.1156 23.6797C13.2514 23.8769 13.3176 24.1101 13.3045 24.3456L13.2767 24.828L13.2765 24.8283C13.2562 25.1819 13.3445 25.5335 13.5308 25.8402C13.7171 26.1469 13.9932 26.3953 14.3255 26.5551L14.7726 26.77C14.9934 26.8756 15.1724 27.0459 15.2832 27.2559L15.5101 27.6813V27.6815C15.6141 27.8566 15.7402 28.019 15.8858 28.165V29.0597H12.0822C11.9753 28.3194 11.5738 27.6462 10.9606 27.1795C10.3116 26.6683 9.43039 26.3527 8.41775 26.2805V16.0326C10.443 15.8867 11.8313 14.847 12.0822 13.2812H27.9536C28.2029 14.847 29.6195 15.8857 31.5814 16.0324V26.2808C29.5562 26.4267 28.1677 27.4939 27.917 29.0597H24.1134L24.1134 28.1648ZM16.6454 28.5976C16.8647 28.6653 17.0954 28.693 17.3255 28.6793L17.4682 28.6718V35.8115L16.6454 36.4088L16.6454 28.5976ZM19.7698 34.1427L18.2277 35.2611V28.699C18.3366 28.7259 18.4397 28.7712 18.5314 28.833L18.9455 29.0928V29.093C19.2584 29.2896 19.625 29.3944 19.9998 29.3944C20.3748 29.3944 20.7413 29.2896 21.0542 29.093L21.4681 28.8332V28.833C21.5598 28.7712 21.6629 28.7259 21.7719 28.6992V35.2613L20.2299 34.1429C20.094 34.0444 19.9058 34.0444 19.7699 34.1429L19.7698 34.1427ZM22.5313 35.8117V28.672L22.6739 28.6795C22.904 28.6933 23.1348 28.6656 23.354 28.5978V36.4093L22.5313 35.8117ZM5.76001 10.7525H34.24V31.5897H24.1139V29.783H28.2604C28.4654 29.7774 28.631 29.6219 28.6397 29.4268C28.6665 28.7711 28.988 28.1579 29.5223 27.743C30.1197 27.2681 30.9662 27.0061 31.9652 26.9909V26.9906C32.1737 26.9863 32.3405 26.8248 32.3414 26.6265V15.6881C32.3402 15.4904 32.1732 15.3298 31.9655 15.3268C30.0404 15.2973 28.7493 14.3464 28.6781 12.9015H28.6779C28.6677 12.7088 28.5 12.558 28.2973 12.5591H11.7395C11.5372 12.5582 11.37 12.7093 11.3603 12.9017C11.3334 13.5554 11.0117 14.1664 10.4776 14.5787C9.88023 15.0536 9.03395 15.3121 8.03465 15.3276V15.3275C7.82717 15.3302 7.6599 15.4907 7.65876 15.6881V26.6265C7.6599 26.8242 7.82693 26.9848 8.03465 26.9878C9.98399 27.018 11.2897 27.9824 11.3591 29.4266V29.4265C11.3679 29.6219 11.534 29.7777 11.7395 29.7831H15.8863V31.5897H5.76011L5.76001 10.7525Z" fill="#1E3C52"/>
<path d="M5.35401 32.3118H15.8864V37.1387C15.8859 37.2759 15.9675 37.4013 16.0966 37.4624C16.2259 37.5234 16.3803 37.5092 16.4949 37.426L20.0001 34.8842L23.5063 37.426C23.5726 37.474 23.6532 37.5 23.7364 37.5C23.837 37.4998 23.9333 37.4615 24.0041 37.3937C24.075 37.326 24.1146 37.2342 24.1141 37.1387V32.3118H34.6459C34.8557 32.3118 34.9994 32.1316 34.9994 31.932V10.3817C35.0051 10.2897 34.9701 10.1993 34.9031 10.1325C34.836 10.0658 34.7429 10.0283 34.6459 10.0294H5.3541C5.2571 10.0283 5.16401 10.0658 5.09688 10.1325C5.02999 10.1993 4.99493 10.2897 5.00059 10.3817V31.932C5.00059 32.1316 5.14433 32.3118 5.3541 32.3118H5.35401ZM22.2098 27.9312C21.7997 27.9104 21.3935 28.0149 21.0502 28.2294L20.6359 28.4892V28.4894C20.4471 28.6079 20.2259 28.6713 19.9996 28.6713C19.7734 28.6713 19.5521 28.6079 19.3634 28.4894L18.949 28.2295V28.2294C18.635 28.0334 18.268 27.9287 17.8925 27.9282C17.8582 27.9282 17.8236 27.9291 17.7892 27.931L17.282 27.9575H17.2823C17.058 27.9691 16.8352 27.9183 16.6405 27.8114C16.4462 27.7046 16.2886 27.546 16.1874 27.3553L15.9614 26.9298C15.7778 26.5818 15.481 26.2996 15.1153 26.1248L14.6682 25.9099C14.4677 25.8136 14.3009 25.6636 14.1886 25.4785C14.0762 25.2933 14.0229 25.081 14.0353 24.8676L14.0631 24.3852C14.0848 23.9948 13.975 23.6083 13.7496 23.2816L13.4766 22.8874V22.8876C13.3518 22.7077 13.2854 22.4972 13.2854 22.2821C13.2854 22.0668 13.3518 21.8563 13.4766 21.6767L13.7496 21.2824V21.2822C13.975 20.9557 14.0848 20.5692 14.0631 20.1791L14.0353 19.6964C14.0229 19.4829 14.0762 19.2706 14.1886 19.0856C14.3009 18.9004 14.4677 18.7505 14.6682 18.6542L15.1153 18.4393C15.481 18.2644 15.7778 17.9822 15.9614 17.6342L16.1874 17.2086C16.2888 17.018 16.4464 16.8595 16.6408 16.7526C16.8352 16.6457 17.058 16.595 17.2822 16.6063L17.7895 16.6328V16.633C18.1995 16.6537 18.6056 16.5491 18.949 16.3347L19.3633 16.0749C19.5521 15.9562 19.7733 15.8929 19.9996 15.8929C20.2258 15.8929 20.4471 15.9562 20.6358 16.0749L21.0502 16.3347C21.3935 16.5491 21.7997 16.6537 22.2097 16.633L22.7169 16.6066V16.6063C22.9412 16.5947 23.164 16.6455 23.3586 16.7526C23.553 16.8595 23.7105 17.018 23.8118 17.2086L24.0378 17.634V17.6342C24.2214 17.982 24.5182 18.2644 24.8839 18.4393L25.3309 18.6542C25.5314 18.7505 25.6983 18.9004 25.8106 19.0856C25.923 19.2707 25.9763 19.4828 25.9638 19.6964L25.9361 20.1788C25.9143 20.569 26.0242 20.9557 26.2495 21.2824L26.5226 21.6767V21.6765C26.6474 21.856 26.7138 22.0666 26.7138 22.2819C26.7138 22.4972 26.6474 22.7078 26.5226 22.8874L26.2495 23.2816C26.0242 23.6083 25.9143 23.9948 25.9361 24.385L25.9638 24.8676C25.9763 25.0812 25.923 25.2933 25.8106 25.4785C25.6983 25.6636 25.5315 25.8136 25.3309 25.9099L24.8839 26.1248C24.5182 26.2996 24.2214 26.5818 24.0378 26.9298L23.8121 27.3555C23.7105 27.546 23.553 27.7046 23.3586 27.8114C23.1643 27.9183 22.9414 27.9691 22.7171 27.9577L22.2098 27.9312ZM24.1134 28.1648C24.2589 28.0188 24.385 27.8566 24.489 27.6813L24.7155 27.2557C24.8265 27.0458 25.0055 26.8754 25.2263 26.77L25.6736 26.5551V26.5549C26.0059 26.3953 26.2821 26.1469 26.4683 25.8402C26.6546 25.5335 26.743 25.1819 26.7224 24.828L26.6946 24.3454C26.6815 24.1099 26.7477 23.8767 26.8835 23.6795L27.1568 23.2853C27.3634 22.9876 27.4737 22.6387 27.4737 22.2821C27.4737 21.9253 27.3634 21.5765 27.1568 21.2788L26.8835 20.8845C26.7477 20.6875 26.6815 20.4541 26.6946 20.2186L26.7224 19.7362H26.7226C26.743 19.3824 26.6548 19.0305 26.4686 18.7237C26.2821 18.4171 26.0059 18.1686 25.6736 18.0089L25.2265 17.794C25.0057 17.6884 24.8267 17.518 24.7159 17.3081L24.4899 16.8827V16.8825C24.3222 16.5663 24.0611 16.3035 23.7388 16.1261C23.4165 15.9488 23.047 15.8649 22.6751 15.8845L22.1681 15.911C21.9206 15.9234 21.6754 15.8604 21.4681 15.7312L21.0538 15.4713L21.054 15.4711C20.7412 15.2746 20.3746 15.1698 19.9996 15.1698C19.6245 15.1698 19.258 15.2746 18.9451 15.4711L18.5308 15.7309L18.531 15.7312C18.3235 15.8602 18.0785 15.9232 17.831 15.911L17.324 15.8845C16.9522 15.8652 16.5827 15.949 16.2603 16.1265C15.938 16.3037 15.6769 16.5665 15.5092 16.8827L15.2832 17.3084C15.1724 17.5183 14.9934 17.6886 14.7726 17.7942L14.3255 18.009C13.9932 18.1687 13.717 18.4171 13.5308 18.7237C13.3446 19.0304 13.2562 19.3823 13.2765 19.7359L13.3043 20.2186H13.3045C13.3176 20.4541 13.2514 20.6872 13.1156 20.8845L12.8423 21.2789C12.6357 21.5766 12.5254 21.9254 12.5254 22.2823C12.5254 22.6389 12.6357 22.9878 12.8423 23.2855L13.1156 23.6797C13.2514 23.8769 13.3176 24.1101 13.3045 24.3456L13.2767 24.828L13.2765 24.8283C13.2562 25.1819 13.3445 25.5335 13.5308 25.8402C13.7171 26.1469 13.9932 26.3953 14.3255 26.5551L14.7726 26.77C14.9934 26.8756 15.1724 27.0459 15.2832 27.2559L15.5101 27.6813V27.6815C15.6141 27.8566 15.7402 28.019 15.8858 28.165V29.0597H12.0822C11.9753 28.3194 11.5738 27.6462 10.9606 27.1795C10.3116 26.6683 9.43039 26.3527 8.41775 26.2805V16.0326C10.443 15.8867 11.8313 14.847 12.0822 13.2812H27.9536C28.2029 14.847 29.6195 15.8857 31.5814 16.0324V26.2808C29.5562 26.4267 28.1677 27.4939 27.917 29.0597H24.1134L24.1134 28.1648ZM16.6454 28.5976C16.8647 28.6653 17.0954 28.693 17.3255 28.6793L17.4682 28.6718V35.8115L16.6454 36.4088L16.6454 28.5976ZM19.7698 34.1427L18.2277 35.2611V28.699C18.3366 28.7259 18.4397 28.7712 18.5314 28.833L18.9455 29.0928V29.093C19.2584 29.2896 19.625 29.3944 19.9998 29.3944C20.3748 29.3944 20.7413 29.2896 21.0542 29.093L21.4681 28.8332V28.833C21.5598 28.7712 21.6629 28.7259 21.7719 28.6992V35.2613L20.2299 34.1429C20.094 34.0444 19.9058 34.0444 19.7699 34.1429L19.7698 34.1427ZM22.5313 35.8117V28.672L22.6739 28.6795C22.904 28.6933 23.1348 28.6656 23.354 28.5978V36.4093L22.5313 35.8117ZM5.76001 10.7525H34.24V31.5897H24.1139V29.783H28.2604C28.4654 29.7774 28.631 29.6219 28.6397 29.4268C28.6665 28.7711 28.988 28.1579 29.5223 27.743C30.1197 27.2681 30.9662 27.0061 31.9652 26.9909V26.9906C32.1737 26.9863 32.3405 26.8248 32.3414 26.6265V15.6881C32.3402 15.4904 32.1732 15.3298 31.9655 15.3268C30.0404 15.2973 28.7493 14.3464 28.6781 12.9015H28.6779C28.6677 12.7088 28.5 12.558 28.2973 12.5591H11.7395C11.5372 12.5582 11.37 12.7093 11.3603 12.9017C11.3334 13.5554 11.0117 14.1664 10.4776 14.5787C9.88023 15.0536 9.03395 15.3121 8.03465 15.3276V15.3275C7.82717 15.3302 7.6599 15.4907 7.65876 15.6881V26.6265C7.6599 26.8242 7.82693 26.9848 8.03465 26.9878C9.98399 27.018 11.2897 27.9824 11.3591 29.4266V29.4265C11.3679 29.6219 11.534 29.7777 11.7395 29.7831H15.8863V31.5897H5.76011L5.76001 10.7525Z" stroke="#1E3C52" stroke-width="0.2" mask="url(#path-2-outside-1_551_4647)"/>
<path d="M25.4835 22.305L25.4836 22.3048V22.2825C25.4836 20.8972 24.9052 19.5695 23.8767 18.5909C22.8484 17.6125 21.454 17.0632 20.0008 17.0632C18.5476 17.0632 17.1532 17.6127 16.1249 18.5912L16.1249 18.5912C15.0966 19.5699 14.5184 20.8977 14.5184 22.2829C14.5184 23.6679 15.0968 24.9957 16.1251 25.9742C17.1534 26.9529 18.5478 27.5022 20.001 27.5022H20.0011C21.4538 27.5007 22.8472 26.9507 23.8753 25.9725C24.8978 24.9995 25.4758 23.6814 25.4835 22.305ZM20.001 26.6796L20.001 26.6795C18.7742 26.6795 17.5979 26.2157 16.7312 25.3908L16.7312 25.3907C15.8643 24.566 15.3779 23.4479 15.3779 22.2828C15.3779 21.1175 15.8643 19.9994 16.7312 19.1747L16.7312 19.1747C17.5979 18.3497 18.7742 17.886 20.001 17.886C21.2278 17.886 22.4041 18.3497 23.2708 19.1747L23.2708 19.1747C24.1377 19.9995 24.6241 21.1176 24.6241 22.2827C24.6228 23.4475 24.1358 24.565 23.2695 25.3895C22.4029 26.2141 21.2274 26.6782 20.001 26.6796Z" fill="#1E3C52" stroke="#1E3C52" stroke-width="0.1"/>
<path d="M23.1235 21.1557L23.1235 21.1557C23.2718 21.1762 23.3985 21.2692 23.4572 21.401H23.459L23.4705 21.4349C23.5218 21.5851 23.4787 21.7491 23.3611 21.8583L23.3611 21.8583L21.9932 23.1272L22.316 24.9182L22.316 24.9182C22.344 25.0737 22.2766 25.23 22.1443 25.3215L22.1442 25.3216C22.0121 25.4128 21.8378 25.4249 21.6936 25.3526L20.0002 24.5054L18.3068 25.3526L18.3068 25.3527C18.1627 25.4246 17.9884 25.4129 17.8562 25.3216L17.8561 25.3215C17.7238 25.23 17.6563 25.0737 17.6844 24.9182C17.6844 24.9182 17.6844 24.9182 17.6844 24.9182L18.0073 23.1272L16.6393 21.8583L16.6393 21.8583C16.5217 21.7491 16.4786 21.5849 16.5299 21.4349L16.5772 21.451L16.5299 21.4349C16.5809 21.2853 16.7162 21.1779 16.8769 21.1557L16.8769 21.1557L18.7693 20.8942L19.6152 19.2633L19.6152 19.2633L19.6596 19.2863C19.7235 19.1628 19.8555 19.0847 20.0002 19.0847C20.1449 19.0847 20.2768 19.1628 20.3408 19.2863L23.1235 21.1557ZM23.1235 21.1557L21.2311 20.8942L20.3852 19.2633L23.1235 21.1557ZM21.232 22.6877L21.2319 22.6877L19.1155 21.6772C19.2544 21.658 19.3758 21.5747 19.4389 21.453L19.4389 21.453L20.0001 20.3709L20.5556 21.4422V21.4424L20.5613 21.4532C20.6245 21.575 20.7458 21.658 20.8849 21.6773L20.885 21.6773L22.1348 21.8502L21.232 22.6877ZM17.8656 21.85L19.1154 21.6772L21.1568 23.0441L21.1076 23.053L21.1076 23.053L21.3213 24.2383L20.1993 23.6769L20.1887 23.6716H20.1881C20.0658 23.6147 19.922 23.6164 19.801 23.6769L19.801 23.6769L18.679 24.2381L18.8927 23.0528L18.8927 23.0527C18.9168 22.9183 18.8698 22.782 18.7684 22.6877L18.7684 22.6877L17.8656 21.85Z" fill="#1E3C52" stroke="#1E3C52" stroke-width="0.1"/>
</svg>
