<svg width="266" height="60" viewBox="0 0 266 60" fill="none" xmlns="http://www.w3.org/2000/svg">
<path d="M115.345 13.3183C115.345 9.94631 117.576 7.71008 120.965 7.69314C124.396 7.71008 126.583 9.98619 126.585 13.3176C126.585 16.6896 124.354 18.9258 120.965 18.9424C117.533 18.9258 115.347 16.6494 115.345 13.3183V13.3183ZM264.624 41.0775C265.63 41.8787 265.794 43.3395 264.989 44.3415C263.713 45.9318 261.143 45.3421 260.976 43.0444C260.816 40.8569 263.076 39.8468 264.624 41.0775ZM238.837 41.0775C239.843 41.8787 240.008 43.3395 239.203 44.3415C237.927 45.9318 235.356 45.3421 235.19 43.0444C235.03 40.8569 237.29 39.8468 238.837 41.0775ZM233.984 45.0001H226.521V43.9744C227.598 43.8837 227.922 43.3843 227.637 42.6064L226.544 39.6308H220.138C219.81 40.5057 219.415 41.5345 219.311 42.3537C219.13 43.7912 219.998 43.8544 221.192 43.9744V45.0001H215.291V43.9744C216.883 43.864 217.363 43.1613 217.927 41.6521L223.678 26.2501H226.025C227.966 31.6218 229.8 36.8715 231.845 42.1921C232.303 43.3864 232.739 43.8788 233.984 43.9744V45.0001V45.0001ZM225.92 37.9405L223.388 30.5927L220.764 37.9405H225.92ZM203.153 41.0733C203.153 38.4827 201.464 38.7018 199.705 38.7018V43.9596C202.17 43.9875 203.153 43.63 203.153 41.0733V41.0733ZM206.896 41.3094C206.896 44.6002 204.832 45.0033 201.926 45.0018C199.439 45.0015 196.951 45.0015 194.464 45.0015V44.0238C195.503 43.925 195.864 43.8594 195.864 42.5877V34.1944C195.864 32.9164 195.404 32.7975 194.385 32.7001V31.7231C196.859 31.7231 199.333 31.7231 201.807 31.7231C203.832 31.7231 206.424 32.1608 206.424 34.7824C206.424 37.8237 204.19 37.954 203.852 38.1181C205.722 38.387 206.896 39.1518 206.896 41.3094ZM202.7 34.8957C202.7 32.6757 201.338 32.7544 199.705 32.837V37.5608C201.752 37.5608 202.7 37.3582 202.7 34.8957ZM259.601 45.0001H251.388V43.9751C252.59 43.8632 253.255 43.955 253.255 42.3915V37.1683C249.48 37.1683 247.918 41.9457 246.948 45.0001H241.851V43.9751C242.605 43.8862 242.812 43.8859 243.338 43.2421C243.957 42.4843 244.729 40.6727 245.194 39.6082C246.132 37.4595 246.894 36.7434 248.66 36.275C246.02 35.8607 244.105 34.1694 244.105 31.342C244.105 28.0737 247.019 26.2427 250.016 26.2501L259.583 26.2751V27.3008C258.382 27.3844 257.443 27.484 257.443 28.9483V42.2475C257.443 43.6977 258.398 43.8788 259.601 43.9751V45.0001ZM253.255 35.7721V27.437C250.219 27.437 248.68 27.9887 248.68 31.4863C248.68 34.9106 250.147 35.7721 253.255 35.7721ZM121.277 42.8256C121.821 43.4733 122.506 43.9095 123.296 44.0263V45.0001H116.381V44.0263C117.46 43.9889 117.554 43.6956 117.248 42.9326C116.614 42.0343 115.983 41.1096 115.352 40.1743L113.038 42.8224C112.254 43.7327 112.652 43.9151 113.778 44.0263V45.0001H109.088V44.0263C110.403 43.9183 110.681 43.6014 111.579 42.562L114.625 39.0894C113.448 37.33 112.276 35.56 111.107 33.8959C110.538 33.2708 109.878 32.812 109.088 32.6951V31.7214H116.003V32.6951C114.924 32.7326 114.709 33.0258 115.136 33.7889C115.694 34.624 116.301 35.5307 116.93 36.4638L119.184 33.8987C120.002 32.885 119.508 32.6683 118.348 32.6951V31.7214H123.314V32.6951C122.231 32.6983 121.656 33.0227 121.293 33.4144C120.12 34.744 118.894 36.1377 117.658 37.5446C118.895 39.3746 120.168 41.2413 121.277 42.8256V42.8256ZM133.727 43.5664V34.132C133.727 32.8596 133.321 32.7915 132.256 32.6944V31.7214H138.705V32.6944C137.674 32.7926 137.602 33.0837 137.602 34.2089C137.602 36.9064 137.602 39.604 137.602 42.3015C137.602 43.2862 137.889 43.5664 138.479 43.5664H140.873L140.881 34.2089C140.881 33.0837 140.81 32.7926 139.779 32.6944V31.7214H146.227V32.6944C145.162 32.7915 144.757 32.8596 144.757 34.132C144.757 36.9513 144.74 39.7712 144.74 42.5905C144.74 43.8632 145.146 43.9314 146.21 44.0281V45.0001C139.052 45.0001 131.893 45.0001 124.734 45.0001V44.0281C125.774 43.9338 126.186 43.8657 126.205 42.6777V34.132C126.205 32.8596 125.799 32.7915 124.734 32.6944V31.7214H131.182V32.6944C130.152 32.7926 130.079 33.0837 130.079 34.2089C130.079 36.9583 130.079 39.707 130.079 42.4564C130.054 43.1987 130.416 43.552 130.787 43.5664H133.727V43.5664ZM154.617 47.4181C153.958 48.4307 153.113 49.204 152.029 49.307C148.967 49.5975 148.454 45.335 151.011 45.0915C152.056 44.992 153.014 46.0607 153.629 46.7821C154.141 46.0575 154.443 45.4995 154.185 44.6168C152.781 41.1131 150.851 37.6134 149.261 34.1058C148.923 33.3601 148.253 32.8151 147.444 32.6951V31.7214H154.361V32.6951C153.281 32.7326 153.014 33.1988 153.32 33.9618L156.077 40.8364L158.283 35.6351C158.458 35.2225 158.623 34.8057 158.788 34.39C159.243 33.1176 158.81 32.8751 157.632 32.6951V31.7214H162.01V32.6951C161.111 32.855 160.562 33.4314 160.222 34.2505L156.414 43.6063C155.881 44.8914 155.378 46.2502 154.617 47.4181V47.4181ZM167.928 42.5125C167.928 43.637 167.999 43.9289 169.029 44.027V45.0001H162.582V44.027C163.647 43.93 164.053 43.8618 164.053 42.5895C164.053 39.7702 164.053 36.9513 164.053 34.132C164.053 32.8596 163.647 32.7915 162.582 32.6944V31.7214H169.029V32.6944C167.999 32.7926 167.928 33.0844 167.928 34.2089V38.0531H172.36V34.2089C172.36 33.0844 172.288 32.7926 171.258 32.6944V31.7214H177.706V32.6944C176.641 32.7915 176.235 32.8596 176.235 34.132C176.235 36.9513 176.235 39.7702 176.235 42.5895C176.235 43.8618 176.641 43.93 177.706 44.027V45.0001H171.258V44.027C172.288 43.9289 172.36 43.637 172.36 42.5125V39.4264H167.928V42.5125ZM179.182 38.3634C179.182 34.2421 181.91 31.5096 186.051 31.4888C190.245 31.5096 192.916 34.2915 192.919 38.362C192.919 42.4833 190.192 45.2157 186.051 45.2362C181.857 45.2157 179.185 42.4338 179.182 38.3634V38.3634ZM186.051 44.165C188.538 44.0913 188.635 40.1337 188.635 38.3634C188.635 36.5927 188.539 32.6337 186.051 32.56C183.564 32.6337 183.466 36.5913 183.466 38.362C183.466 40.1327 183.563 44.0913 186.051 44.165ZM74.8506 45.0064V43.9776C76.1186 43.8675 76.8017 43.5294 77.1065 42.1568C77.2217 41.6426 77.2749 40.7764 77.2749 39.5545V30.6618C77.2749 28.7238 76.7049 27.6746 74.8506 27.2849V26.2564C77.6754 26.2564 80.4995 26.2564 83.3242 26.2564V27.2849C81.47 27.6746 81.1591 28.7238 81.1591 30.6618V35.3168H87.3701V30.6618C87.3701 28.7238 87.0596 27.6746 85.2054 27.2849V26.2564C88.0302 26.2564 90.8542 26.2564 93.6786 26.2564V27.2849C91.8244 27.6746 91.2544 28.7238 91.2544 30.6618V39.5545C91.2544 40.7764 91.3079 41.6426 91.4228 42.1568C91.728 43.5294 92.4107 43.8675 93.6786 43.9776V45.0064C90.8542 45.0064 88.0302 45.0064 85.2054 45.0064V43.9776C86.4733 43.8675 86.8969 43.5287 87.2021 42.1568C87.3163 41.6426 87.3701 40.7764 87.3701 39.5545V37.0077H81.1591V39.5545C81.1591 40.7764 81.213 41.6426 81.3275 42.1568C81.6324 43.5287 82.0563 43.8675 83.3242 43.9776V45.0064C80.4995 45.0064 77.6754 45.0064 74.8506 45.0064ZM108.513 44.6669C108.238 44.7851 107.928 44.8952 107.583 45.0001C107.118 45.1381 106.625 45.2087 106.103 45.2087C104.958 45.2087 103.52 44.9401 103.176 43.6896C102.143 44.6313 100.358 45.2362 98.9358 45.2362C98.022 45.2362 97.2435 44.9369 96.602 44.3394C95.9561 43.7426 95.6353 42.9537 95.6353 41.9683C95.6353 37.9914 101.591 36.7596 102.999 36.2581V35.2896C102.999 34.1295 102.835 32.53 101.299 32.53C100.747 32.53 100.299 32.6902 99.8666 33.0251C101.459 35.554 98.8805 37.3014 97.0131 36.3901C96.1819 35.9814 95.7792 35.0125 96.1819 34.0508C96.8178 32.5321 99.3452 31.4863 101.479 31.4863C104.675 31.4863 106.873 32.2494 106.873 35.842C106.873 36.8277 106.857 37.9914 106.826 39.3375C106.793 40.684 106.777 41.5712 106.777 41.9994C106.777 42.3918 106.829 42.6996 106.933 42.9269C107.038 43.1496 107.198 43.3194 107.411 43.4351C107.543 43.5018 107.748 43.5463 108.029 43.5594C108.201 43.5675 108.361 43.5724 108.513 43.5753V44.6669ZM102.997 37.6427C101.421 38.23 99.6777 39.46 99.6777 41.2677C99.6777 41.9464 99.8177 42.4406 100.099 42.7437C100.827 43.5421 102.67 43.0321 103.059 42.5034L102.997 37.6427V37.6427ZM153.257 18.7501V17.9539C154.128 17.8744 154.46 17.8187 154.46 16.7775V9.25773L152.88 9.25561C151.835 9.25561 151.779 10.1295 151.699 10.997H150.899V7.89184C158.738 7.89502 157.448 7.88585 161.183 7.88585V11.0108H160.383C160.304 10.1433 160.248 9.26938 159.202 9.26938L157.621 9.26761V16.7775C157.621 17.8151 157.953 17.8744 158.825 17.9539V18.7501C156.968 18.7501 155.113 18.7501 153.257 18.7501V18.7501ZM139.21 18.7794H135.15L132.538 13.8488L131.965 14.4996V16.744C131.965 17.6627 132.023 17.9027 132.866 17.9831V18.7794H127.589V17.9831C128.461 17.9037 128.793 17.8483 128.793 16.8064C128.793 14.4908 128.794 12.1734 128.794 9.85808C128.794 8.8169 128.462 8.76149 127.591 8.68208V7.88585H132.866V8.68208C132.075 8.75691 131.974 8.97149 131.965 9.75502C131.965 10.8625 131.965 11.9701 131.965 13.0776C132.993 12.0495 133.983 11.1244 134.933 10.0296C135.775 9.06009 135.156 8.7075 134.374 8.68632V7.91197H138.653V8.66444C137.915 8.7262 137.23 9.16562 136.639 9.73632L134.7 11.6062C135.844 13.4637 136.924 15.2189 138.042 17.0902C138.414 17.7124 138.603 17.8169 139.21 17.9831V18.7794V18.7794ZM150.548 18.4762C150.323 18.5726 150.069 18.6625 149.787 18.7487C149.407 18.862 149.003 18.9195 148.577 18.9195C147.64 18.9195 146.463 18.6996 146.182 17.6764C145.336 18.4469 143.876 18.9421 142.712 18.9421C141.964 18.9421 141.327 18.6968 140.802 18.2083C140.274 17.7202 140.012 17.0743 140.012 16.2682C140.012 13.0144 144.885 12.0064 146.037 11.5963V10.804C146.037 9.85456 145.902 8.54585 144.645 8.54585C144.194 8.54585 143.827 8.67678 143.473 8.95067C144.776 11.02 142.667 12.4494 141.139 11.704C140.459 11.3694 140.13 10.577 140.459 9.78997C140.979 8.54832 143.047 7.69209 144.793 7.69209C147.408 7.69209 149.206 8.31643 149.206 11.2557C149.206 12.0618 149.193 13.0151 149.167 14.1156C149.142 15.2168 149.128 15.9431 149.128 16.294C149.128 16.6144 149.17 16.8664 149.255 17.0524C149.341 17.2346 149.472 17.374 149.647 17.4682C149.754 17.5233 149.922 17.56 150.152 17.5702C150.292 17.5762 150.424 17.5808 150.548 17.5826V18.4762V18.4762ZM146.035 12.7289C144.745 13.2096 143.319 14.2159 143.319 15.695C143.319 16.2502 143.434 16.6543 143.664 16.9024C144.259 17.5557 145.767 17.1382 146.086 16.7058L146.035 12.7289ZM90.4675 18.7501H84.3604V17.9094C85.2412 17.8349 85.5067 17.4262 85.2738 16.7888L84.2526 14.0062H79.2652C78.9831 14.7837 78.5584 15.7988 78.4599 16.582C78.3117 17.7587 79.0231 17.8106 79.9997 17.9094V18.7501H75.1707V17.9094C76.4734 17.8187 76.8662 17.2437 77.3277 16.007L82.0336 3.38867H83.9545C85.5425 7.7895 87.0433 12.0901 88.7161 16.4496C89.0907 17.4276 89.4488 17.8314 90.4675 17.9094V18.7501ZM83.8684 12.9664L81.7961 6.94631L79.6495 12.9664H83.8684ZM110.817 15.5351C110.817 13.4157 109.434 13.5957 107.996 13.5957V17.8963C110.012 17.9196 110.817 17.627 110.817 15.5351V15.5351ZM113.878 15.7282C113.878 18.4201 112.189 18.7501 109.813 18.7494C107.778 18.7494 105.743 18.7487 103.708 18.7487V17.9489C104.558 17.8681 104.854 17.8144 104.854 16.774V9.90748C104.854 8.86207 104.477 8.76503 103.643 8.68491V7.88585C105.668 7.88585 107.692 7.88585 109.716 7.88585C111.373 7.88585 113.492 8.24372 113.492 10.3889C113.492 12.8768 111.665 12.9834 111.388 13.1175C112.919 13.3377 113.878 13.9631 113.878 15.7282V15.7282ZM110.446 10.4814C110.446 8.66514 109.332 8.72938 107.996 8.79679V12.6618C109.671 12.6618 110.446 12.4963 110.446 10.4814V10.4814ZM92.3196 17.4763C93.3798 15.6276 94.1607 12.1575 94.1607 10.1694C94.1607 8.93338 93.9757 8.8102 92.8917 8.67397V7.88585C95.8675 7.88585 98.8436 7.88585 101.819 7.88585V8.68208C100.948 8.76149 100.616 8.8169 100.616 9.85808C100.616 12.1677 100.63 14.4675 100.63 16.7775C100.63 17.0856 100.64 17.3076 100.677 17.4696H101.798V20.5946H100.998C100.919 19.727 100.863 18.7501 99.817 18.7501C97.497 18.7501 95.1873 18.7363 92.8676 18.7363C91.8219 18.7363 91.7663 19.7133 91.6865 20.5808H90.8869V17.4756L92.3196 17.4763V17.4763ZM93.6694 17.4749L97.4449 17.4724L97.447 8.91432H95.412C95.3886 11.6027 94.8998 15.0481 93.6694 17.4749V17.4749ZM120.965 18.0657C123 18.0057 123.079 14.7675 123.079 13.3183C123.079 11.8695 123 8.6302 120.965 8.5702C118.93 8.6302 118.851 11.8681 118.851 13.3176C118.851 14.7664 118.93 18.0057 120.965 18.0657Z" fill="#D0B28A"/>
<path fill-rule="evenodd" clip-rule="evenodd" d="M7.30384 7.34507L17.8394 0H0V40.9031L7.30384 45.9956V7.34507ZM20.0864 13.9705L27.3906 8.87825V0L12.7825 10.1848V49.8152L27.3906 60V51.1214L20.0864 46.0295V13.9705V13.9705Z" fill="#BD925A"/>
<path fill-rule="evenodd" clip-rule="evenodd" d="M51.1295 7.34507L40.5944 0H58.4341V42.1768L51.1295 47.2687V7.34507V7.34507ZM40.1736 5.09259V46.0295L47.4778 40.937V49.8152L32.8698 60V0L40.1736 5.09259V5.09259Z" fill="#D0B28A"/>
</svg>
