<svg width="252" height="60" viewBox="0 0 252 60" fill="none" xmlns="http://www.w3.org/2000/svg">
<path fill-rule="evenodd" clip-rule="evenodd" d="M7.30384 7.34507L17.8394 0H0V40.9031L7.30384 45.9956V7.34507ZM20.0864 13.9705L27.3906 8.87825V0L12.7825 10.1848V49.8152L27.3906 60V51.1214L20.0864 46.0295V13.9705Z" fill="#EEF0E2"/>
<path fill-rule="evenodd" clip-rule="evenodd" d="M51.1299 7.34507L40.5947 0H58.4344V42.1768L51.1299 47.2687V7.34507ZM40.174 5.09259V46.0295L47.4782 40.937V49.8152L32.8701 60V0L40.174 5.09259Z" fill="#EEF0E2"/>
<path fill-rule="evenodd" clip-rule="evenodd" d="M75 20.828V21.818H79.312V20.586C79.0773 20.6007 78.806 20.6153 78.498 20.63C78.2047 20.63 77.926 20.6447 77.662 20.674C77.7647 20.4247 77.8673 20.168 77.97 19.904C78.0727 19.64 78.168 19.3613 78.256 19.068L78.894 17.154L84.284 17.022L84.944 18.804C85.0613 19.112 85.1347 19.42 85.164 19.728C85.208 20.036 85.142 20.3 84.966 20.52C84.8047 20.7253 84.4673 20.8353 83.954 20.85V21.818H89.3V20.608C89.08 20.6227 88.8453 20.6373 88.596 20.652C88.3613 20.652 88.1193 20.6667 87.87 20.696C87.8847 20.3587 87.8187 19.9553 87.672 19.486C87.5253 19.002 87.3933 18.6207 87.276 18.342L82.458 6H81.578L77.134 18.166C76.9433 18.6647 76.7673 19.1193 76.606 19.53C76.4447 19.926 76.2467 20.2413 76.012 20.476C75.7773 20.7107 75.44 20.828 75 20.828ZM83.91 15.966H79.29L80.654 12.072C80.8447 11.5587 81.0133 11.082 81.16 10.642C81.3067 10.202 81.4387 9.79867 81.556 9.432H81.578C81.71 9.872 81.8567 10.334 82.018 10.818C82.1793 11.2873 82.348 11.764 82.524 12.248L83.91 15.966ZM89.6223 20.696V25.778H90.6563C90.6563 24.5753 90.7809 23.6147 91.0303 22.896C91.2943 22.1773 91.7563 21.818 92.4163 21.818H99.3243C100.014 21.818 100.476 22.1773 100.71 22.896C100.96 23.6293 101.084 24.59 101.084 25.778H102.118V20.63L100.028 20.718C100.058 20.4393 100.08 20.168 100.094 19.904C100.109 19.6253 100.124 19.354 100.138 19.09V14.184C100.138 13.7 100.153 13.2747 100.182 12.908C100.226 12.5413 100.336 12.2553 100.512 12.05C100.688 11.8447 100.996 11.742 101.436 11.742V10.818H91.3163V12.006L93.3183 11.896C93.2889 12.6733 93.2376 13.4213 93.1643 14.14C93.1056 14.8587 93.0249 15.5407 92.9223 16.186C92.8343 16.8313 92.7243 17.4253 92.5923 17.968C92.4603 18.496 92.3136 18.9653 92.1523 19.376C91.9469 19.8893 91.7196 20.2413 91.4703 20.432C91.2356 20.608 90.9423 20.696 90.5903 20.696H89.6223ZM96.5083 20.696H92.7683C92.9149 20.5053 93.0469 20.3 93.1643 20.08C93.2963 19.86 93.4136 19.618 93.5163 19.354C93.6483 18.9727 93.7729 18.4887 93.8903 17.902C94.0223 17.3153 94.1469 16.6333 94.2643 15.856C94.3816 15.064 94.4843 14.1913 94.5723 13.238C94.6309 12.8127 94.7409 12.49 94.9023 12.27C95.0783 12.05 95.3789 11.94 95.8043 11.94H97.9163C97.8869 12.2187 97.8649 12.49 97.8503 12.754C97.8356 13.018 97.8283 13.282 97.8283 13.546V18.254C97.8283 18.7233 97.8063 19.1487 97.7623 19.53C97.7329 19.8967 97.6229 20.1827 97.4323 20.388C97.2563 20.5933 96.9483 20.696 96.5083 20.696ZM103.662 20.894V21.818H110.042C110.746 21.818 111.392 21.7007 111.978 21.466C112.58 21.2167 113.056 20.8647 113.408 20.41C113.76 19.9407 113.936 19.3687 113.936 18.694C113.936 17.9753 113.694 17.374 113.21 16.89C112.726 16.406 111.993 16.1127 111.01 16.01C111.817 15.79 112.396 15.438 112.748 14.954C113.115 14.47 113.298 13.9347 113.298 13.348C113.313 12.4973 112.998 11.8593 112.352 11.434C111.707 11.0087 110.834 10.796 109.734 10.796H107.512C106.779 10.796 106.082 10.8033 105.422 10.818H103.684V11.896C103.875 11.8813 104.095 11.874 104.344 11.874C104.608 11.8593 104.85 11.8447 105.07 11.83C105.041 12.006 105.019 12.204 105.004 12.424C104.99 12.644 104.982 12.886 104.982 13.15V19.2C104.982 19.8013 104.887 20.234 104.696 20.498C104.506 20.7473 104.161 20.8793 103.662 20.894ZM107.886 20.74C107.622 20.74 107.395 20.7327 107.204 20.718C107.234 20.5713 107.256 20.3953 107.27 20.19C107.285 19.97 107.292 19.728 107.292 19.464V16.758C107.527 16.7433 107.806 16.736 108.128 16.736C108.451 16.7213 108.774 16.714 109.096 16.714C109.727 16.714 110.284 16.868 110.768 17.176C111.267 17.4693 111.516 17.9827 111.516 18.716C111.516 19.3907 111.304 19.8967 110.878 20.234C110.468 20.5567 109.888 20.718 109.14 20.718C109.052 20.718 108.884 20.7253 108.634 20.74H107.886ZM108.722 15.724L107.292 15.746V13.15C107.292 12.5633 107.424 12.1893 107.688 12.028C107.967 11.8667 108.334 11.786 108.788 11.786C109.199 11.786 109.573 11.83 109.91 11.918C110.248 12.006 110.512 12.1747 110.702 12.424C110.908 12.6733 111.01 13.0327 111.01 13.502C111.01 13.8687 110.944 14.2207 110.812 14.558C110.68 14.8807 110.446 15.152 110.108 15.372C109.786 15.5773 109.324 15.6947 108.722 15.724ZM118.161 21.466C118.997 21.9353 119.936 22.17 120.977 22.17C122.033 22.17 122.972 21.906 123.793 21.378C124.629 20.85 125.289 20.124 125.773 19.2C126.257 18.276 126.499 17.2347 126.499 16.076C126.499 14.976 126.25 14.008 125.751 13.172C125.267 12.3213 124.607 11.6613 123.771 11.192C122.935 10.708 121.997 10.466 120.955 10.466C119.929 10.466 118.997 10.73 118.161 11.258C117.325 11.786 116.658 12.512 116.159 13.436C115.675 14.3453 115.433 15.394 115.433 16.582C115.433 17.682 115.675 18.6573 116.159 19.508C116.658 20.344 117.325 20.9967 118.161 21.466ZM122.781 20.41C122.385 20.8353 121.835 21.0553 121.131 21.07C120.413 21.07 119.819 20.8207 119.349 20.322C118.895 19.8233 118.557 19.1853 118.337 18.408C118.117 17.6307 118.007 16.8093 118.007 15.944C118.007 15.196 118.103 14.492 118.293 13.832C118.499 13.1573 118.814 12.6073 119.239 12.182C119.679 11.7567 120.244 11.544 120.933 11.544C121.476 11.5293 121.938 11.676 122.319 11.984C122.701 12.2773 123.009 12.6733 123.243 13.172C123.478 13.6707 123.647 14.228 123.749 14.844C123.867 15.4453 123.925 16.0613 123.925 16.692C123.925 17.4107 123.837 18.1073 123.661 18.782C123.485 19.442 123.192 19.9847 122.781 20.41ZM128.019 20.894V21.818H132.947V20.652C132.727 20.6667 132.493 20.6813 132.243 20.696C132.009 20.696 131.774 20.7033 131.539 20.718C131.583 20.4393 131.605 20.168 131.605 19.904C131.62 19.6253 131.627 19.354 131.627 19.09L131.649 16.582L132.397 16.538C132.573 16.7287 132.779 16.9927 133.013 17.33C133.263 17.6673 133.534 18.0487 133.827 18.474C134.121 18.8847 134.443 19.3247 134.795 19.794C135.221 20.3513 135.609 20.828 135.961 21.224C136.328 21.62 136.724 21.818 137.149 21.818H139.327V20.894C139.093 20.894 138.843 20.806 138.579 20.63C138.33 20.454 138.088 20.2413 137.853 19.992C137.619 19.7427 137.413 19.508 137.237 19.288C137.076 19.0533 136.959 18.892 136.885 18.804L135.345 16.824C135.111 16.516 134.891 16.2667 134.685 16.076C134.48 15.8707 134.238 15.702 133.959 15.57L135.587 13.854C135.822 13.59 136.108 13.304 136.445 12.996C136.783 12.688 137.157 12.4167 137.567 12.182C137.993 11.9327 138.462 11.7787 138.975 11.72V10.818H134.641V11.962L136.027 11.918C135.851 12.05 135.675 12.204 135.499 12.38L134.883 12.996L132.573 15.482H131.649V14.184C131.649 13.7 131.664 13.2747 131.693 12.908C131.737 12.5413 131.847 12.2553 132.023 12.05C132.214 11.8447 132.522 11.742 132.947 11.742V10.818H128.041V11.984C128.247 11.9693 128.474 11.962 128.723 11.962C128.973 11.9473 129.215 11.9327 129.449 11.918C129.405 12.182 129.376 12.4533 129.361 12.732V13.546L129.339 18.452C129.339 18.936 129.317 19.3613 129.273 19.728C129.229 20.0947 129.119 20.3807 128.943 20.586C128.767 20.7913 128.459 20.894 128.019 20.894ZM146.911 21.202C146.925 21.378 146.947 21.5833 146.977 21.818H150.475V20.652C150.24 20.652 149.991 20.6593 149.727 20.674C149.463 20.6887 149.206 20.7033 148.957 20.718C148.986 20.41 149.008 20.1167 149.023 19.838C149.037 19.5593 149.045 19.31 149.045 19.09V17.55C149.059 17.066 149.067 16.582 149.067 16.098V14.58C149.067 13.1573 148.751 12.116 148.121 11.456C147.505 10.796 146.566 10.466 145.305 10.466C144.469 10.466 143.713 10.5833 143.039 10.818C142.364 11.0527 141.829 11.3753 141.433 11.786C141.051 12.1967 140.861 12.666 140.861 13.194C140.861 13.5167 140.949 13.8027 141.125 14.052C141.315 14.2867 141.587 14.404 141.939 14.404C142.364 14.4187 142.665 14.3013 142.841 14.052C143.017 13.788 143.105 13.5533 143.105 13.348C143.105 13.216 143.083 13.0767 143.039 12.93C143.009 12.7687 142.936 12.6293 142.819 12.512C143.024 12.16 143.317 11.9107 143.699 11.764C144.08 11.6027 144.461 11.5293 144.843 11.544C145.415 11.544 145.833 11.676 146.097 11.94C146.375 12.1893 146.559 12.5193 146.647 12.93C146.735 13.326 146.779 13.7587 146.779 14.228V15.526C146.045 15.526 145.297 15.6067 144.535 15.768C143.772 15.9147 143.068 16.1493 142.423 16.472C141.777 16.78 141.257 17.1833 140.861 17.682C140.465 18.1807 140.267 18.7673 140.267 19.442C140.267 20.2193 140.531 20.872 141.059 21.4C141.601 21.9133 142.401 22.17 143.457 22.17C144.073 22.17 144.667 22.0453 145.239 21.796C145.811 21.532 146.346 21.1507 146.845 20.652C146.874 20.8427 146.896 21.026 146.911 21.202ZM145.327 16.736C145.825 16.6333 146.309 16.5673 146.779 16.538C146.779 16.9633 146.771 17.3593 146.757 17.726V18.452V19.002C146.757 19.1633 146.764 19.3247 146.779 19.486C146.397 19.838 146.009 20.1167 145.613 20.322C145.217 20.5127 144.762 20.608 144.249 20.608C143.838 20.608 143.479 20.4907 143.171 20.256C142.877 20.0213 142.716 19.6547 142.687 19.156C142.687 18.7013 142.804 18.3127 143.039 17.99C143.288 17.6673 143.611 17.4033 144.007 17.198C144.403 16.9927 144.843 16.8387 145.327 16.736ZM154.029 20.894V21.818H158.957V20.652L157.549 20.718C157.593 20.4393 157.615 20.168 157.615 19.904C157.629 19.6253 157.637 19.354 157.637 19.09V12.006H158.715C159.389 12.006 159.866 12.1747 160.145 12.512C160.423 12.8493 160.57 13.4653 160.585 14.36H161.619L161.509 10.818H151.477L151.389 14.36H152.423C152.423 13.4653 152.562 12.8493 152.841 12.512C153.134 12.1747 153.589 12.006 154.205 12.006H155.415C155.385 12.2847 155.363 12.5487 155.349 12.798V13.546V18.452C155.349 18.936 155.327 19.3613 155.283 19.728C155.239 20.0947 155.129 20.3807 154.953 20.586C154.777 20.7913 154.469 20.894 154.029 20.894ZM76.418 46.388V47.818H101.508V46.102C101.283 46.102 100.971 46.1107 100.572 46.128C100.191 46.1453 99.8527 46.1627 99.558 46.18C99.5927 45.9547 99.6187 45.6427 99.636 45.244C99.6533 44.8453 99.662 44.4293 99.662 43.996V33.622C99.662 32.946 99.714 32.426 99.818 32.062C99.9393 31.698 100.13 31.4467 100.39 31.308C100.667 31.152 101.04 31.0653 101.508 31.048V29.618H94.644V31.334C94.8693 31.3167 95.164 31.308 95.528 31.308C95.892 31.2907 96.2127 31.2733 96.49 31.256C96.4553 31.4813 96.4293 31.7933 96.412 32.192C96.3947 32.5907 96.386 33.024 96.386 33.492V43.892C96.386 44.4813 96.3253 44.9407 96.204 45.27C96.0827 45.582 95.892 45.79 95.632 45.894C95.372 45.998 95.034 46.0673 94.618 46.102L90.484 46.128C90.5187 45.8853 90.5447 45.5733 90.562 45.192C90.5793 44.8107 90.588 44.412 90.588 43.996V33.622C90.588 32.946 90.64 32.426 90.744 32.062C90.848 31.698 91.03 31.4467 91.29 31.308C91.5673 31.152 91.94 31.0653 92.408 31.048V29.618H85.57V31.334C85.778 31.3167 86.064 31.308 86.428 31.308C86.8093 31.2907 87.1387 31.2733 87.416 31.256C87.3813 31.4813 87.3553 31.7933 87.338 32.192C87.3207 32.5907 87.312 33.024 87.312 33.492V43.892C87.312 44.4987 87.2513 44.958 87.13 45.27C87.0087 45.582 86.818 45.79 86.558 45.894C86.298 45.998 85.96 46.0673 85.544 46.102L81.514 46.154V33.622C81.514 32.946 81.566 32.426 81.67 32.062C81.774 31.698 81.956 31.4467 82.216 31.308C82.4933 31.152 82.866 31.0653 83.334 31.048V29.618H76.418V31.334C76.6433 31.3167 76.9467 31.308 77.328 31.308C77.7093 31.2907 78.0473 31.2733 78.342 31.256C78.3247 31.4813 78.2987 31.7933 78.264 32.192C78.2467 32.5907 78.238 33.024 78.238 33.492V43.814C78.238 44.4727 78.186 44.9927 78.082 45.374C77.978 45.738 77.796 45.998 77.536 46.154C77.276 46.2927 76.9033 46.3707 76.418 46.388ZM104.186 54.344C104.619 54.6907 105.148 54.864 105.772 54.864C106.569 54.864 107.228 54.63 107.748 54.162C108.285 53.694 108.77 52.9833 109.204 52.03C109.637 51.094 110.105 49.9153 110.608 48.494L113.858 39.29C114.152 38.4753 114.464 37.7993 114.794 37.262C115.14 36.7073 115.6 36.352 116.172 36.196V34.818H111.726V36.482L113.312 36.404C113.173 36.56 113.034 36.794 112.896 37.106C112.757 37.418 112.618 37.7473 112.48 38.094C112.358 38.4233 112.254 38.7267 112.168 39.004C111.786 40.096 111.44 41.136 111.128 42.124C110.833 43.112 110.564 43.944 110.322 44.62L107.592 38.562C107.297 37.9207 107.184 37.3833 107.254 36.95C107.323 36.4993 107.687 36.248 108.346 36.196H108.398V34.818H102.288V36.482L103.484 36.43C103.553 36.7767 103.666 37.21 103.822 37.73C103.995 38.25 104.316 38.9953 104.784 39.966L108.866 48.364C108.658 49.0747 108.441 49.716 108.216 50.288C107.99 50.8773 107.774 51.3713 107.566 51.77C107.392 52.134 107.202 52.42 106.994 52.628C106.803 52.8533 106.621 52.9833 106.448 53.018H106.266C106.283 52.9487 106.292 52.8793 106.292 52.81V52.654C106.292 52.2727 106.17 51.9433 105.928 51.666C105.702 51.406 105.399 51.2847 105.018 51.302C104.584 51.3193 104.229 51.484 103.952 51.796C103.674 52.1253 103.536 52.498 103.536 52.914C103.536 53.5207 103.752 53.9973 104.186 54.344ZM117.029 46.44V47.818H121.787V46.154L120.097 46.206L120.253 45.582C120.305 45.374 120.34 45.166 120.357 44.958L120.903 41.058C120.99 40.5727 121.05 40.122 121.085 39.706C121.12 39.29 121.146 38.874 121.163 38.458L121.579 39.602C121.735 39.966 121.891 40.356 122.047 40.772L124.985 47.818H126.701L130.367 38.458L131.433 44.75C131.554 45.3913 131.485 45.8333 131.225 46.076C130.965 46.3187 130.558 46.44 130.003 46.44V47.818H135.879V46.154L134.371 46.206C134.423 45.7207 134.406 45.2267 134.319 44.724L133.149 37.6C133.045 37.0627 133.123 36.6727 133.383 36.43C133.643 36.1873 134.033 36.0573 134.553 36.04V34.818H130.081L127.143 42.618C127.022 42.9127 126.909 43.2073 126.805 43.502C126.701 43.7793 126.588 44.074 126.467 44.386C126.346 44.0393 126.198 43.684 126.025 43.32C125.869 42.9387 125.722 42.5833 125.583 42.254L122.437 34.818H117.913V36.482L119.811 36.404C119.776 36.5947 119.742 36.794 119.707 37.002C119.69 37.21 119.664 37.4353 119.629 37.678L118.719 44.906C118.65 45.4433 118.485 45.8333 118.225 46.076C117.982 46.3013 117.584 46.4227 117.029 46.44ZM137.265 46.44V47.818H143.583V46.154C143.375 46.154 143.115 46.1627 142.803 46.18C142.491 46.18 142.196 46.1973 141.919 46.232C141.953 45.868 141.979 45.4953 141.997 45.114C142.014 44.7153 142.023 44.3773 142.023 44.1V41.76L142.777 41.734C142.967 41.9593 143.201 42.28 143.479 42.696C143.773 43.0947 144.094 43.5453 144.441 44.048L145.481 45.504C146.001 46.1973 146.469 46.7607 146.885 47.194C147.318 47.61 147.803 47.818 148.341 47.818H151.123V46.44C150.845 46.44 150.568 46.3533 150.291 46.18C150.013 46.0067 149.753 45.7987 149.511 45.556C149.285 45.296 149.077 45.0533 148.887 44.828C148.713 44.5853 148.575 44.4033 148.471 44.282L146.703 41.968C146.373 41.552 146.079 41.2227 145.819 40.98C145.576 40.7373 145.316 40.5467 145.039 40.408L146.807 38.458C147.084 38.1633 147.405 37.8513 147.769 37.522C148.133 37.1927 148.557 36.9067 149.043 36.664C149.528 36.404 150.065 36.248 150.655 36.196V34.818H145.195V36.482L146.703 36.456C146.512 36.5947 146.321 36.768 146.131 36.976C145.957 37.1667 145.749 37.392 145.507 37.652L143.193 40.2H142.023L142.049 38.796C142.049 38.276 142.066 37.8253 142.101 37.444C142.153 37.0453 142.283 36.742 142.491 36.534C142.716 36.3087 143.08 36.196 143.583 36.196V34.818H137.265V36.482C137.49 36.482 137.75 36.4733 138.045 36.456C138.357 36.4387 138.651 36.4213 138.929 36.404C138.894 36.768 138.868 37.1493 138.851 37.548C138.833 37.9293 138.825 38.2587 138.825 38.536V43.84C138.825 44.3427 138.799 44.7933 138.747 45.192C138.695 45.5907 138.556 45.9027 138.331 46.128C138.123 46.336 137.767 46.44 137.265 46.44ZM157.81 36.534C158.035 36.3087 158.39 36.196 158.876 36.196V34.818H152.558V36.482C152.783 36.482 153.043 36.4733 153.338 36.456C153.65 36.4387 153.944 36.4213 154.222 36.404C154.187 36.768 154.161 37.1493 154.144 37.548C154.126 37.9293 154.118 38.2587 154.118 38.536V43.84C154.118 44.3427 154.092 44.7933 154.04 45.192C153.988 45.5907 153.858 45.9027 153.65 46.128C153.442 46.336 153.086 46.44 152.584 46.44V47.818H158.902V46.154C158.694 46.154 158.425 46.1627 158.096 46.18C157.784 46.18 157.489 46.1973 157.212 46.232C157.261 45.8873 157.287 45.5348 157.29 45.1746L162.641 39.4771L162.62 43.84C162.62 44.3427 162.594 44.7933 162.542 45.192C162.49 45.5907 162.36 45.9027 162.152 46.128C161.944 46.336 161.588 46.44 161.086 46.44V47.818H167.404V46.154C167.196 46.154 166.936 46.1627 166.624 46.18C166.312 46.18 166.017 46.1973 165.74 46.232C165.774 45.868 165.792 45.4953 165.792 45.114C165.809 44.7153 165.818 44.3773 165.818 44.1L165.844 38.796C165.844 38.276 165.87 37.8253 165.922 37.444C165.974 37.0453 166.104 36.742 166.312 36.534C166.537 36.3087 166.892 36.196 167.378 36.196V34.818H161.06V36.482C161.285 36.482 161.554 36.4733 161.866 36.456C162.178 36.4387 162.472 36.4213 162.75 36.404C162.714 36.6568 162.686 36.9179 162.667 37.1873L157.322 42.8035L157.342 38.796C157.342 38.276 157.368 37.8253 157.42 37.444C157.472 37.0453 157.602 36.742 157.81 36.534ZM174.721 36.534C174.946 36.3087 175.31 36.196 175.813 36.196V34.818H169.469V36.482L171.133 36.404C171.098 36.768 171.072 37.1493 171.055 37.548C171.038 37.9293 171.029 38.2587 171.029 38.536V43.84C171.029 44.3427 171.003 44.7933 170.951 45.192C170.899 45.5907 170.76 45.9027 170.535 46.128C170.327 46.336 169.972 46.44 169.469 46.44V47.818H175.813V46.154L174.123 46.232C174.175 45.868 174.201 45.4953 174.201 45.114C174.218 44.7153 174.227 44.3773 174.227 44.1L174.237 42.057L179.401 42.0023V43.84C179.401 44.3427 179.375 44.7933 179.323 45.192C179.271 45.5907 179.132 45.9027 178.907 46.128C178.699 46.336 178.344 46.44 177.841 46.44V47.818H184.185V46.154L182.521 46.232C182.556 45.868 182.573 45.4953 182.573 45.114C182.59 44.7153 182.599 44.3773 182.599 44.1V38.796C182.616 38.276 182.642 37.8253 182.677 37.444C182.729 37.0453 182.859 36.742 183.067 36.534C183.292 36.3087 183.656 36.196 184.159 36.196V34.818H177.841V36.482L179.505 36.404C179.47 36.768 179.444 37.1493 179.427 37.548C179.41 37.9293 179.401 38.2587 179.401 38.536V40.33H174.246L174.253 38.796C174.253 38.276 174.279 37.8253 174.331 37.444C174.383 37.0453 174.513 36.742 174.721 36.534ZM192.143 46.336V47.818H197.473V46.05C197.247 46.05 196.944 46.0587 196.563 46.076C196.199 46.0933 195.861 46.1107 195.549 46.128C195.687 45.8333 195.826 45.504 195.965 45.14C196.103 44.7587 196.225 44.4207 196.329 44.126L196.901 42.384L202.933 42.28L203.583 44.048C203.739 44.4293 203.825 44.802 203.843 45.166C203.877 45.53 203.799 45.8247 203.609 46.05C203.418 46.2753 203.054 46.388 202.517 46.388V47.818H209.147V46.102C208.939 46.102 208.696 46.1107 208.419 46.128C208.141 46.1453 207.855 46.1627 207.561 46.18C207.543 45.7813 207.448 45.3133 207.275 44.776C207.101 44.2387 206.963 43.8227 206.859 43.528L201.217 29.15H199.813L194.639 43.268C194.431 43.84 194.231 44.36 194.041 44.828C193.85 45.2787 193.607 45.6427 193.313 45.92C193.018 46.1973 192.628 46.336 192.143 46.336ZM200.957 36.898L202.361 40.72H197.473L198.877 36.716C199.137 36.0053 199.336 35.3727 199.475 34.818C199.631 34.2633 199.761 33.8127 199.865 33.466H199.917C200.038 33.9687 200.185 34.5233 200.359 35.13C200.549 35.7193 200.749 36.3087 200.957 36.898ZM210.949 47.688C211.295 48.052 211.72 48.234 212.223 48.234C212.725 48.234 213.141 48.052 213.471 47.688C213.8 47.3067 213.965 46.856 213.965 46.336C213.965 45.7987 213.8 45.348 213.471 44.984C213.141 44.6027 212.725 44.412 212.223 44.412C211.755 44.412 211.339 44.6027 210.975 44.984C210.628 45.348 210.454 45.7987 210.454 46.336C210.454 46.856 210.619 47.3067 210.949 47.688ZM230.995 43.502C231.653 45.01 232.303 46.5353 232.945 48.078H234.816L240.146 34.22C240.181 34.0987 240.225 33.9773 240.277 33.856C240.346 33.7347 240.407 33.6133 240.458 33.492C240.476 33.9427 240.493 34.4193 240.51 34.922C240.528 35.4247 240.554 35.8927 240.589 36.326C240.623 36.7593 240.641 37.0887 240.641 37.314L240.952 43.84C240.987 44.5333 240.944 45.062 240.823 45.426C240.701 45.7727 240.502 46.0153 240.225 46.154C239.947 46.2927 239.592 46.3707 239.159 46.388V47.818H245.919V46.102C245.693 46.102 245.381 46.1107 244.982 46.128C244.601 46.128 244.263 46.1453 243.969 46.18C243.986 45.9547 244.003 45.6513 244.021 45.27C244.055 44.8887 244.055 44.49 244.021 44.074L243.527 33.492C243.509 32.7813 243.57 32.2613 243.708 31.932C243.847 31.5853 244.055 31.3513 244.333 31.23C244.627 31.1087 244.974 31.048 245.372 31.048V29.618H240.094C239.367 31.49 238.639 33.3447 237.911 35.182C237.2 37.002 236.498 38.8307 235.805 40.668C235.596 41.188 235.389 41.7513 235.18 42.358C234.973 42.9473 234.756 43.5193 234.531 44.074H234.505C234.366 43.6927 234.201 43.2507 234.01 42.748C233.82 42.2453 233.62 41.734 233.413 41.214C233.222 40.694 233.04 40.2087 232.867 39.758L228.758 29.618H223.585V31.334C223.827 31.3167 224.139 31.308 224.521 31.308C224.902 31.2907 225.231 31.2733 225.508 31.256C225.491 31.516 225.474 31.8453 225.456 32.244C225.456 32.6427 225.448 33.0587 225.43 33.492L225.145 44.074C225.145 44.6807 225.084 45.1487 224.963 45.478C224.841 45.8073 224.65 46.0413 224.391 46.18C224.131 46.3013 223.775 46.3707 223.325 46.388V47.818H228.941V46.102C228.715 46.102 228.403 46.1107 228.005 46.128C227.623 46.1453 227.277 46.1627 226.965 46.18C226.999 45.92 227.025 45.582 227.042 45.166C227.06 44.75 227.077 44.3253 227.094 43.892V42.176C227.112 41.5693 227.129 40.9713 227.146 40.382C227.164 39.7927 227.173 39.2207 227.173 38.666C227.19 38.1113 227.199 37.6 227.199 37.132C227.216 36.5427 227.216 35.936 227.199 35.312C227.199 34.6707 227.181 33.9947 227.146 33.284C227.355 34.0293 227.571 34.7573 227.797 35.468C228.022 36.1787 228.247 36.8287 228.473 37.418C228.698 38.0073 228.897 38.5013 229.07 38.9C229.712 40.4427 230.353 41.9767 230.995 43.502ZM248.755 47.688C249.102 48.052 249.526 48.234 250.029 48.234C250.532 48.234 250.948 48.052 251.277 47.688C251.606 47.3067 251.771 46.856 251.771 46.336C251.771 45.7987 251.606 45.348 251.277 44.984C250.948 44.6027 250.532 44.412 250.029 44.412C249.561 44.412 249.145 44.6027 248.781 44.984C248.434 45.348 248.261 45.7987 248.261 46.336C248.261 46.856 248.426 47.3067 248.755 47.688Z" fill="#EEF0E2"/>
</svg>
