<svg width="40" height="40" viewBox="0 0 40 40" fill="none" xmlns="http://www.w3.org/2000/svg">
<path d="M31.9815 10.2862C28.8282 10.2862 26.2623 7.59779 26.2623 4.29294V3.75001H13.741V4.29294C13.741 7.5975 11.1733 10.2862 8.01837 10.2862H7.5V18.0338C7.5 26.2103 12.4552 33.5075 19.8301 36.1881L20 36.25L20.1699 36.1881C27.5459 33.5076 32.5 26.2114 32.5 18.0338V10.2862H31.9815ZM31.4632 18.0332C31.4632 25.6856 26.864 32.5192 20.0002 35.0982C13.1362 32.5191 8.53669 25.6856 8.53669 18.0332V11.3517C11.8517 11.0871 14.5048 8.30809 14.7585 4.83673H25.2446C25.4972 8.3079 28.1497 11.087 31.4632 11.3517V18.0332Z" fill="#1E3C52"/>
<path d="M24.4328 6.33036L24.3337 5.92278H15.6711L15.5702 6.33036C14.8618 9.20988 12.7134 11.4592 9.9634 12.2023L9.57422 12.3079V18.0346C9.57422 25.048 13.5918 31.26 19.8088 33.8617L20.0006 33.9438L20.193 33.8617C26.4087 31.2615 30.4259 25.0486 30.4259 18.0346V12.3079L30.0367 12.2023C27.2898 11.4594 25.1423 9.21007 24.4332 6.33036H24.4328ZM29.3895 18.0336C29.3895 24.5276 25.7128 30.2881 20.001 32.7697C14.2901 30.2882 10.6115 24.5282 10.6115 18.0336V13.1387C13.4107 12.2387 15.605 9.94074 16.4637 7.0097H23.5389C24.3964 9.94069 26.5907 12.2389 29.3889 13.1387L29.3895 18.0336Z" fill="#1E3C52"/>
<path fill-rule="evenodd" clip-rule="evenodd" d="M16.0929 15.6936L17.9991 14.2957H14.7715V22.0803L16.0929 23.0495V15.6936ZM18.4056 16.9545L19.7271 15.9854V14.2957L17.0842 16.234V23.7764L19.7271 25.7148V24.025L18.4056 23.056V16.9545Z" fill="#1E3C52"/>
<path fill-rule="evenodd" clip-rule="evenodd" d="M23.9081 15.6832L22.0021 14.2853H25.2297V22.3123L23.9081 23.2814V15.6832ZM21.9259 15.2545V23.0455L23.2474 22.0763V23.766L20.6045 25.7044V14.2853L21.9259 15.2545Z" fill="#1E3C52"/>
</svg>
