<svg width="24" height="24" viewBox="0 0 24 24" fill="none" xmlns="http://www.w3.org/2000/svg">
<path fill-rule="evenodd" clip-rule="evenodd" d="M7.58281 2.29361C7.90697 2.25203 8.23581 2.31813 8.51873 2.48174C8.80038 2.64463 9.02097 2.89517 9.14689 3.19508L11.0285 7.58563L11.0294 7.58751C11.1268 7.81265 11.1675 8.05826 11.1479 8.3028C11.1283 8.54804 11.0487 8.78468 10.916 8.99188L10.9111 8.99959L9.34841 11.3763C10.0458 12.8147 11.209 13.9751 12.6491 14.669L12.6521 14.667L14.9941 13.1026C15.2019 12.9623 15.4418 12.8766 15.6915 12.8536C15.9413 12.8306 16.1927 12.871 16.4227 12.971L16.4255 12.9723L20.8053 14.8533C21.1051 14.9792 21.3555 15.1998 21.5183 15.4813C21.6819 15.7642 21.748 16.0931 21.7064 16.4172C21.5442 17.6835 20.9261 18.8473 19.9678 19.6908C19.0096 20.5343 17.7768 20.9997 16.5002 21C12.9197 21 9.4858 19.5777 6.95406 17.046C4.42232 14.5142 3 11.0805 3 7.50003C3.00029 6.2234 3.46573 4.99045 4.30925 4.03219C5.15271 3.07399 6.31663 2.4559 7.58281 2.29361ZM8.67187 11.7L7.99535 12.0238C7.88459 11.7924 7.83505 11.5364 7.85147 11.2803C7.86788 11.0243 7.9497 10.7767 8.0891 10.5613L8.09205 10.5567L9.65268 8.18312L9.65126 8.17985L7.76689 3.78297C6.86505 3.9002 6.03617 4.34054 5.43518 5.02329C4.8327 5.70772 4.50025 6.58821 4.5 7.50003M8.67187 11.7L7.99685 12.0269C8.84248 13.7732 10.2545 15.1816 12.003 16.0228L12.0072 16.0248C12.2426 16.1362 12.503 16.1845 12.7627 16.1647C13.0217 16.1451 13.2712 16.0585 13.4867 15.9134L13.4884 15.9123L15.8291 14.3487L20.2165 16.2329L20.2177 16.2334C20.1005 17.1353 19.6595 17.9639 18.9767 18.5649C18.2923 19.1673 17.4118 19.4998 16.5 19.5M4.5 7.50003C4.50004 10.6826 5.76432 13.7349 8.01472 15.9853C10.2651 18.2357 13.3175 19.5 16.5 19.5" fill="#EEF0E2"/>
</svg>
