<svg width="24" height="24" viewBox="0 0 24 24" fill="none" xmlns="http://www.w3.org/2000/svg">
<path d="M18.3659 5.62488C16.6725 3.93738 14.4146 2.99988 12.0314 2.99988C7.07665 2.99988 3.06272 6.99988 3.06272 11.9374C3.06272 13.4999 3.50174 15.0624 4.25436 16.3749L3 20.9999L7.76655 19.7499C9.08362 20.4374 10.5261 20.8124 12.0314 20.8124C16.9861 20.8124 21 16.8124 21 11.8749C20.9373 9.56238 20.0592 7.31238 18.3659 5.62488ZM16.3589 15.1249C16.1707 15.6249 15.2927 16.1249 14.8537 16.1874C14.4773 16.2499 13.9756 16.2499 13.4739 16.1249C13.1603 15.9999 12.7213 15.8749 12.2195 15.6249C9.96167 14.6874 8.51917 12.4374 8.39373 12.2499C8.26829 12.1249 7.45296 11.0624 7.45296 9.93738C7.45296 8.81238 8.01742 8.31238 8.20557 8.06238C8.39373 7.81238 8.6446 7.81238 8.83275 7.81238C8.95819 7.81238 9.14634 7.81238 9.27177 7.81238C9.39721 7.81238 9.58536 7.74988 9.77352 8.18738C9.96167 8.62488 10.4007 9.74988 10.4634 9.81238C10.5261 9.93738 10.5261 10.0624 10.4634 10.1874C10.4007 10.3124 10.338 10.4374 10.2125 10.5624C10.0871 10.6874 9.96167 10.8749 9.89895 10.9374C9.77352 11.0624 9.64808 11.1874 9.77352 11.3749C9.89895 11.6249 10.338 12.3124 11.0279 12.9374C11.9059 13.6874 12.5958 13.9374 12.8467 14.0624C13.0976 14.1874 13.223 14.1249 13.3484 13.9999C13.4739 13.8749 13.9129 13.3749 14.0383 13.1249C14.1638 12.8749 14.3519 12.9374 14.5401 12.9999C14.7282 13.0624 15.8571 13.6249 16.0453 13.7499C16.2962 13.8749 16.4216 13.9374 16.4843 13.9999C16.547 14.1874 16.547 14.6249 16.3589 15.1249Z" fill="white"/>
</svg>
